<svg width="1440" height="818" viewBox="0 0 1440 818" fill="none" xmlns="http://www.w3.org/2000/svg">
<rect width="1440" height="818" fill="#104C8B"/>
<path d="M179.84 181.276V214.78H173.12V192.988L164.144 214.78H159.056L150.032 192.988V214.78H143.312V181.276H150.944L161.6 206.188L172.256 181.276H179.84ZM211.204 200.908C211.204 201.868 211.14 202.732 211.012 203.5H191.572C191.732 205.42 192.404 206.924 193.588 208.012C194.772 209.1 196.228 209.644 197.956 209.644C200.452 209.644 202.228 208.572 203.284 206.428H210.532C209.764 208.988 208.292 211.1 206.116 212.764C203.94 214.396 201.268 215.212 198.1 215.212C195.54 215.212 193.236 214.652 191.188 213.532C189.172 212.38 187.588 210.764 186.436 208.684C185.316 206.604 184.756 204.204 184.756 201.484C184.756 198.732 185.316 196.316 186.436 194.236C187.556 192.156 189.124 190.556 191.14 189.436C193.156 188.316 195.476 187.756 198.1 187.756C200.628 187.756 202.884 188.3 204.868 189.388C206.884 190.476 208.436 192.028 209.524 194.044C210.644 196.028 211.204 198.316 211.204 200.908ZM204.244 198.988C204.212 197.26 203.588 195.884 202.372 194.86C201.156 193.804 199.668 193.276 197.908 193.276C196.244 193.276 194.836 193.788 193.684 194.812C192.564 195.804 191.876 197.196 191.62 198.988H204.244ZM225.818 201.388C225.818 198.7 226.346 196.316 227.402 194.236C228.49 192.156 229.946 190.556 231.77 189.436C233.626 188.316 235.69 187.756 237.962 187.756C239.946 187.756 241.674 188.156 243.146 188.956C244.65 189.756 245.85 190.764 246.746 191.98V188.188H253.514V214.78H246.746V210.892C245.882 212.14 244.682 213.18 243.146 214.012C241.642 214.812 239.898 215.212 237.914 215.212C235.674 215.212 233.626 214.636 231.77 213.484C229.946 212.332 228.49 210.716 227.402 208.636C226.346 206.524 225.818 204.108 225.818 201.388ZM246.746 201.484C246.746 199.852 246.426 198.46 245.786 197.308C245.146 196.124 244.282 195.228 243.194 194.62C242.106 193.98 240.938 193.66 239.69 193.66C238.442 193.66 237.29 193.964 236.234 194.572C235.178 195.18 234.314 196.076 233.642 197.26C233.002 198.412 232.682 199.788 232.682 201.388C232.682 202.988 233.002 204.396 233.642 205.612C234.314 206.796 235.178 207.708 236.234 208.348C237.322 208.988 238.474 209.308 239.69 209.308C240.938 209.308 242.106 209.004 243.194 208.396C244.282 207.756 245.146 206.86 245.786 205.708C246.426 204.524 246.746 203.116 246.746 201.484ZM258.35 201.388C258.35 198.7 258.878 196.316 259.934 194.236C261.022 192.156 262.494 190.556 264.35 189.436C266.206 188.316 268.27 187.756 270.542 187.756C272.27 187.756 273.918 188.14 275.486 188.908C277.054 189.644 278.302 190.636 279.23 191.884V179.26H286.046V214.78H279.23V210.844C278.398 212.156 277.23 213.212 275.726 214.012C274.222 214.812 272.478 215.212 270.494 215.212C268.254 215.212 266.206 214.636 264.35 213.484C262.494 212.332 261.022 210.716 259.934 208.636C258.878 206.524 258.35 204.108 258.35 201.388ZM279.278 201.484C279.278 199.852 278.958 198.46 278.318 197.308C277.678 196.124 276.814 195.228 275.726 194.62C274.638 193.98 273.47 193.66 272.222 193.66C270.974 193.66 269.822 193.964 268.766 194.572C267.71 195.18 266.846 196.076 266.174 197.26C265.534 198.412 265.214 199.788 265.214 201.388C265.214 202.988 265.534 204.396 266.174 205.612C266.846 206.796 267.71 207.708 268.766 208.348C269.854 208.988 271.006 209.308 272.222 209.308C273.47 209.308 274.638 209.004 275.726 208.396C276.814 207.756 277.678 206.86 278.318 205.708C278.958 204.524 279.278 203.116 279.278 201.484ZM296.017 185.02C294.833 185.02 293.841 184.652 293.041 183.916C292.273 183.148 291.889 182.204 291.889 181.084C291.889 179.964 292.273 179.036 293.041 178.3C293.841 177.532 294.833 177.148 296.017 177.148C297.201 177.148 298.177 177.532 298.945 178.3C299.745 179.036 300.145 179.964 300.145 181.084C300.145 182.204 299.745 183.148 298.945 183.916C298.177 184.652 297.201 185.02 296.017 185.02ZM299.329 188.188V214.78H292.609V188.188H299.329ZM304.24 201.484C304.24 198.732 304.8 196.332 305.92 194.284C307.04 192.204 308.592 190.604 310.576 189.484C312.56 188.332 314.832 187.756 317.392 187.756C320.688 187.756 323.408 188.588 325.552 190.252C327.728 191.884 329.184 194.188 329.92 197.164H322.672C322.288 196.012 321.632 195.116 320.704 194.476C319.808 193.804 318.688 193.468 317.344 193.468C315.424 193.468 313.904 194.172 312.784 195.58C311.664 196.956 311.104 198.924 311.104 201.484C311.104 204.012 311.664 205.98 312.784 207.388C313.904 208.764 315.424 209.452 317.344 209.452C320.064 209.452 321.84 208.236 322.672 205.804H329.92C329.184 208.684 327.728 210.972 325.552 212.668C323.376 214.364 320.656 215.212 317.392 215.212C314.832 215.212 312.56 214.652 310.576 213.532C308.592 212.38 307.04 210.78 305.92 208.732C304.8 206.652 304.24 204.236 304.24 201.484ZM338.251 185.02C337.067 185.02 336.075 184.652 335.275 183.916C334.507 183.148 334.123 182.204 334.123 181.084C334.123 179.964 334.507 179.036 335.275 178.3C336.075 177.532 337.067 177.148 338.251 177.148C339.435 177.148 340.411 177.532 341.179 178.3C341.979 179.036 342.379 179.964 342.379 181.084C342.379 182.204 341.979 183.148 341.179 183.916C340.411 184.652 339.435 185.02 338.251 185.02ZM341.563 188.188V214.78H334.843V188.188H341.563ZM360.011 215.212C357.451 215.212 355.147 214.652 353.099 213.532C351.051 212.38 349.435 210.764 348.251 208.684C347.099 206.604 346.523 204.204 346.523 201.484C346.523 198.764 347.115 196.364 348.299 194.284C349.515 192.204 351.163 190.604 353.243 189.484C355.323 188.332 357.643 187.756 360.203 187.756C362.763 187.756 365.083 188.332 367.163 189.484C369.243 190.604 370.875 192.204 372.059 194.284C373.275 196.364 373.883 198.764 373.883 201.484C373.883 204.204 373.259 206.604 372.011 208.684C370.795 210.764 369.131 212.38 367.019 213.532C364.939 214.652 362.603 215.212 360.011 215.212ZM360.011 209.356C361.227 209.356 362.363 209.068 363.419 208.492C364.507 207.884 365.371 206.988 366.011 205.804C366.651 204.62 366.971 203.18 366.971 201.484C366.971 198.956 366.299 197.02 364.955 195.676C363.643 194.3 362.027 193.612 360.107 193.612C358.187 193.612 356.571 194.3 355.259 195.676C353.979 197.02 353.339 198.956 353.339 201.484C353.339 204.012 353.963 205.964 355.211 207.34C356.491 208.684 358.091 209.356 360.011 209.356ZM393.548 187.804C396.716 187.804 399.276 188.812 401.228 190.828C403.18 192.812 404.156 195.596 404.156 199.18V214.78H397.436V200.092C397.436 197.98 396.908 196.364 395.852 195.244C394.796 194.092 393.356 193.516 391.532 193.516C389.676 193.516 388.204 194.092 387.116 195.244C386.06 196.364 385.532 197.98 385.532 200.092V214.78H378.812V188.188H385.532V191.5C386.428 190.348 387.564 189.452 388.94 188.812C390.348 188.14 391.884 187.804 393.548 187.804ZM435.266 200.908C435.266 201.868 435.202 202.732 435.074 203.5H415.634C415.794 205.42 416.466 206.924 417.65 208.012C418.834 209.1 420.29 209.644 422.018 209.644C424.514 209.644 426.29 208.572 427.346 206.428H434.594C433.826 208.988 432.354 211.1 430.178 212.764C428.002 214.396 425.33 215.212 422.162 215.212C419.602 215.212 417.298 214.652 415.25 213.532C413.234 212.38 411.65 210.764 410.498 208.684C409.378 206.604 408.818 204.204 408.818 201.484C408.818 198.732 409.378 196.316 410.498 194.236C411.618 192.156 413.186 190.556 415.202 189.436C417.218 188.316 419.538 187.756 422.162 187.756C424.69 187.756 426.946 188.3 428.93 189.388C430.946 190.476 432.498 192.028 433.586 194.044C434.706 196.028 435.266 198.316 435.266 200.908ZM428.306 198.988C428.274 197.26 427.65 195.884 426.434 194.86C425.218 193.804 423.73 193.276 421.97 193.276C420.306 193.276 418.898 193.788 417.746 194.812C416.626 195.804 415.938 197.196 415.682 198.988H428.306ZM466.345 187.804C469.513 187.804 472.073 188.812 474.025 190.828C475.977 192.812 476.953 195.596 476.953 199.18V214.78H470.233V200.092C470.233 197.98 469.705 196.364 468.649 195.244C467.593 194.092 466.153 193.516 464.329 193.516C462.473 193.516 461.001 194.092 459.913 195.244C458.857 196.364 458.329 197.98 458.329 200.092V214.78H451.609V188.188H458.329V191.5C459.225 190.348 460.361 189.452 461.737 188.812C463.145 188.14 464.681 187.804 466.345 187.804ZM481.615 201.388C481.615 198.7 482.143 196.316 483.199 194.236C484.287 192.156 485.743 190.556 487.567 189.436C489.423 188.316 491.487 187.756 493.759 187.756C495.743 187.756 497.471 188.156 498.943 188.956C500.447 189.756 501.647 190.764 502.543 191.98V188.188H509.311V214.78H502.543V210.892C501.679 212.14 500.479 213.18 498.943 214.012C497.439 214.812 495.695 215.212 493.711 215.212C491.471 215.212 489.423 214.636 487.567 213.484C485.743 212.332 484.287 210.716 483.199 208.636C482.143 206.524 481.615 204.108 481.615 201.388ZM502.543 201.484C502.543 199.852 502.223 198.46 501.583 197.308C500.943 196.124 500.079 195.228 498.991 194.62C497.903 193.98 496.735 193.66 495.487 193.66C494.239 193.66 493.087 193.964 492.031 194.572C490.975 195.18 490.111 196.076 489.439 197.26C488.799 198.412 488.479 199.788 488.479 201.388C488.479 202.988 488.799 204.396 489.439 205.612C490.111 206.796 490.975 207.708 492.031 208.348C493.119 208.988 494.271 209.308 495.487 209.308C496.735 209.308 497.903 209.004 498.991 208.396C500.079 207.756 500.943 206.86 501.583 205.708C502.223 204.524 502.543 203.116 502.543 201.484ZM526.051 215.212C523.875 215.212 521.923 214.828 520.195 214.06C518.467 213.26 517.091 212.188 516.067 210.844C515.075 209.5 514.531 208.012 514.435 206.38H521.203C521.331 207.404 521.827 208.252 522.691 208.924C523.587 209.596 524.691 209.932 526.003 209.932C527.283 209.932 528.275 209.676 528.979 209.164C529.715 208.652 530.083 207.996 530.083 207.196C530.083 206.332 529.635 205.692 528.739 205.276C527.875 204.828 526.483 204.348 524.562 203.836C522.579 203.356 520.947 202.86 519.667 202.348C518.419 201.836 517.331 201.052 516.403 199.996C515.507 198.94 515.059 197.516 515.059 195.724C515.059 194.252 515.475 192.908 516.307 191.692C517.171 190.476 518.387 189.516 519.955 188.812C521.555 188.108 523.427 187.756 525.571 187.756C528.739 187.756 531.267 188.556 533.155 190.156C535.043 191.724 536.083 193.852 536.275 196.54H529.843C529.747 195.484 529.299 194.652 528.499 194.044C527.731 193.404 526.691 193.084 525.379 193.084C524.163 193.084 523.219 193.308 522.547 193.756C521.907 194.204 521.587 194.828 521.587 195.628C521.587 196.524 522.035 197.212 522.931 197.692C523.827 198.14 525.219 198.604 527.107 199.084C529.027 199.564 530.611 200.06 531.859 200.572C533.107 201.084 534.179 201.884 535.075 202.972C536.003 204.028 536.483 205.436 536.515 207.196C536.515 208.732 536.083 210.108 535.219 211.324C534.387 212.54 533.171 213.5 531.571 214.204C530.003 214.876 528.163 215.212 526.051 215.212ZM560.188 192.028C561.052 190.812 562.236 189.804 563.74 189.004C565.276 188.172 567.02 187.756 568.972 187.756C571.244 187.756 573.292 188.316 575.116 189.436C576.972 190.556 578.428 192.156 579.484 194.236C580.572 196.284 581.116 198.668 581.116 201.388C581.116 204.108 580.572 206.524 579.484 208.636C578.428 210.716 576.972 212.332 575.116 213.484C573.292 214.636 571.244 215.212 568.972 215.212C567.02 215.212 565.292 214.812 563.788 214.012C562.316 213.212 561.116 212.204 560.188 210.988V227.452H553.468V188.188H560.188V192.028ZM574.252 201.388C574.252 199.788 573.916 198.412 573.244 197.26C572.604 196.076 571.74 195.18 570.652 194.572C569.596 193.964 568.444 193.66 567.196 193.66C565.98 193.66 564.828 193.98 563.74 194.62C562.684 195.228 561.82 196.124 561.148 197.308C560.508 198.492 560.188 199.884 560.188 201.484C560.188 203.084 560.508 204.476 561.148 205.66C561.82 206.844 562.684 207.756 563.74 208.396C564.828 209.004 565.98 209.308 567.196 209.308C568.444 209.308 569.596 208.988 570.652 208.348C571.74 207.708 572.604 206.796 573.244 205.612C573.916 204.428 574.252 203.02 574.252 201.388ZM592.72 192.316C593.584 190.908 594.704 189.804 596.08 189.004C597.488 188.204 599.088 187.804 600.88 187.804V194.86H599.104C596.992 194.86 595.392 195.356 594.304 196.348C593.248 197.34 592.72 199.068 592.72 201.532V214.78H586V188.188H592.72V192.316ZM608.814 185.02C607.63 185.02 606.638 184.652 605.838 183.916C605.07 183.148 604.686 182.204 604.686 181.084C604.686 179.964 605.07 179.036 605.838 178.3C606.638 177.532 607.63 177.148 608.814 177.148C609.998 177.148 610.974 177.532 611.742 178.3C612.542 179.036 612.942 179.964 612.942 181.084C612.942 182.204 612.542 183.148 611.742 183.916C610.974 184.652 609.998 185.02 608.814 185.02ZM612.126 188.188V214.78H605.406V188.188H612.126ZM633.501 187.804C636.669 187.804 639.229 188.812 641.181 190.828C643.133 192.812 644.109 195.596 644.109 199.18V214.78H637.389V200.092C637.389 197.98 636.861 196.364 635.805 195.244C634.749 194.092 633.309 193.516 631.485 193.516C629.629 193.516 628.157 194.092 627.069 195.244C626.013 196.364 625.485 197.98 625.485 200.092V214.78H618.765V188.188H625.485V191.5C626.381 190.348 627.517 189.452 628.893 188.812C630.301 188.14 631.837 187.804 633.501 187.804ZM648.771 201.484C648.771 198.732 649.332 196.332 650.452 194.284C651.572 192.204 653.124 190.604 655.108 189.484C657.092 188.332 659.364 187.756 661.924 187.756C665.22 187.756 667.94 188.588 670.084 190.252C672.26 191.884 673.716 194.188 674.452 197.164H667.204C666.82 196.012 666.164 195.116 665.236 194.476C664.34 193.804 663.22 193.468 661.876 193.468C659.956 193.468 658.436 194.172 657.316 195.58C656.196 196.956 655.636 198.924 655.636 201.484C655.636 204.012 656.196 205.98 657.316 207.388C658.436 208.764 659.956 209.452 661.876 209.452C664.596 209.452 666.372 208.236 667.204 205.804H674.452C673.716 208.684 672.26 210.972 670.084 212.668C667.908 214.364 665.188 215.212 661.924 215.212C659.364 215.212 657.092 214.652 655.108 213.532C653.124 212.38 651.572 210.78 650.452 208.732C649.332 206.652 648.771 204.236 648.771 201.484ZM682.783 185.02C681.599 185.02 680.607 184.652 679.807 183.916C679.039 183.148 678.655 182.204 678.655 181.084C678.655 179.964 679.039 179.036 679.807 178.3C680.607 177.532 681.599 177.148 682.783 177.148C683.967 177.148 684.943 177.532 685.711 178.3C686.511 179.036 686.911 179.964 686.911 181.084C686.911 182.204 686.511 183.148 685.711 183.916C684.943 184.652 683.967 185.02 682.783 185.02ZM686.095 188.188V214.78H679.375V188.188H686.095ZM699.454 192.028C700.318 190.812 701.502 189.804 703.006 189.004C704.542 188.172 706.286 187.756 708.238 187.756C710.51 187.756 712.558 188.316 714.382 189.436C716.238 190.556 717.694 192.156 718.75 194.236C719.838 196.284 720.382 198.668 720.382 201.388C720.382 204.108 719.838 206.524 718.75 208.636C717.694 210.716 716.238 212.332 714.382 213.484C712.558 214.636 710.51 215.212 708.238 215.212C706.286 215.212 704.558 214.812 703.054 214.012C701.582 213.212 700.382 212.204 699.454 210.988V227.452H692.734V188.188H699.454V192.028ZM713.518 201.388C713.518 199.788 713.182 198.412 712.51 197.26C711.87 196.076 711.006 195.18 709.918 194.572C708.862 193.964 707.71 193.66 706.462 193.66C705.246 193.66 704.094 193.98 703.006 194.62C701.95 195.228 701.086 196.124 700.414 197.308C699.774 198.492 699.454 199.884 699.454 201.484C699.454 203.084 699.774 204.476 700.414 205.66C701.086 206.844 701.95 207.756 703.006 208.396C704.094 209.004 705.246 209.308 706.462 209.308C707.71 209.308 708.862 208.988 709.918 208.348C711.006 207.708 711.87 206.796 712.51 205.612C713.182 204.428 713.518 203.02 713.518 201.388ZM723.537 201.388C723.537 198.7 724.065 196.316 725.121 194.236C726.209 192.156 727.665 190.556 729.489 189.436C731.345 188.316 733.409 187.756 735.681 187.756C737.665 187.756 739.393 188.156 740.865 188.956C742.369 189.756 743.569 190.764 744.465 191.98V188.188H751.233V214.78H744.465V210.892C743.601 212.14 742.401 213.18 740.865 214.012C739.361 214.812 737.617 215.212 735.633 215.212C733.393 215.212 731.345 214.636 729.489 213.484C727.665 212.332 726.209 210.716 725.121 208.636C724.065 206.524 723.537 204.108 723.537 201.388ZM744.465 201.484C744.465 199.852 744.145 198.46 743.505 197.308C742.865 196.124 742.001 195.228 740.913 194.62C739.825 193.98 738.657 193.66 737.409 193.66C736.161 193.66 735.009 193.964 733.953 194.572C732.897 195.18 732.033 196.076 731.361 197.26C730.721 198.412 730.401 199.788 730.401 201.388C730.401 202.988 730.721 204.396 731.361 205.612C732.033 206.796 732.897 207.708 733.953 208.348C735.041 208.988 736.193 209.308 737.409 209.308C738.657 209.308 739.825 209.004 740.913 208.396C742.001 207.756 742.865 206.86 743.505 205.708C744.145 204.524 744.465 203.116 744.465 201.484ZM761.204 185.02C760.02 185.02 759.028 184.652 758.228 183.916C757.46 183.148 757.076 182.204 757.076 181.084C757.076 179.964 757.46 179.036 758.228 178.3C759.028 177.532 760.02 177.148 761.204 177.148C762.388 177.148 763.364 177.532 764.132 178.3C764.932 179.036 765.332 179.964 765.332 181.084C765.332 182.204 764.932 183.148 764.132 183.916C763.364 184.652 762.388 185.02 761.204 185.02ZM764.516 188.188V214.78H757.796V188.188H764.516ZM781.332 215.212C779.156 215.212 777.204 214.828 775.476 214.06C773.748 213.26 772.372 212.188 771.348 210.844C770.356 209.5 769.812 208.012 769.716 206.38H776.484C776.612 207.404 777.108 208.252 777.972 208.924C778.868 209.596 779.972 209.932 781.284 209.932C782.564 209.932 783.556 209.676 784.26 209.164C784.996 208.652 785.364 207.996 785.364 207.196C785.364 206.332 784.916 205.692 784.02 205.276C783.156 204.828 781.764 204.348 779.844 203.836C777.86 203.356 776.228 202.86 774.948 202.348C773.7 201.836 772.612 201.052 771.684 199.996C770.788 198.94 770.34 197.516 770.34 195.724C770.34 194.252 770.756 192.908 771.588 191.692C772.452 190.476 773.668 189.516 775.236 188.812C776.836 188.108 778.708 187.756 780.852 187.756C784.02 187.756 786.548 188.556 788.436 190.156C790.324 191.724 791.364 193.852 791.556 196.54H785.124C785.028 195.484 784.58 194.652 783.78 194.044C783.012 193.404 781.972 193.084 780.66 193.084C779.444 193.084 778.5 193.308 777.828 193.756C777.188 194.204 776.868 194.828 776.868 195.628C776.868 196.524 777.316 197.212 778.212 197.692C779.108 198.14 780.5 198.604 782.388 199.084C784.308 199.564 785.892 200.06 787.14 200.572C788.388 201.084 789.46 201.884 790.356 202.972C791.284 204.028 791.764 205.436 791.796 207.196C791.796 208.732 791.364 210.108 790.5 211.324C789.668 212.54 788.452 213.5 786.852 214.204C785.284 214.876 783.444 215.212 781.332 215.212ZM150.032 264.316C150.896 262.908 152.016 261.804 153.392 261.004C154.8 260.204 156.4 259.804 158.192 259.804V266.86H156.416C154.304 266.86 152.704 267.356 151.616 268.348C150.56 269.34 150.032 271.068 150.032 273.532V286.78H143.312V260.188H150.032V264.316ZM187.438 272.908C187.438 273.868 187.374 274.732 187.246 275.5H167.806C167.966 277.42 168.638 278.924 169.822 280.012C171.006 281.1 172.462 281.644 174.19 281.644C176.686 281.644 178.462 280.572 179.518 278.428H186.766C185.998 280.988 184.526 283.1 182.35 284.764C180.174 286.396 177.502 287.212 174.334 287.212C171.774 287.212 169.47 286.652 167.422 285.532C165.406 284.38 163.822 282.764 162.67 280.684C161.55 278.604 160.99 276.204 160.99 273.484C160.99 270.732 161.55 268.316 162.67 266.236C163.79 264.156 165.358 262.556 167.374 261.436C169.39 260.316 171.71 259.756 174.334 259.756C176.862 259.756 179.118 260.3 181.102 261.388C183.118 262.476 184.67 264.028 185.758 266.044C186.878 268.028 187.438 270.316 187.438 272.908ZM180.478 270.988C180.446 269.26 179.822 267.884 178.606 266.86C177.39 265.804 175.902 265.276 174.142 265.276C172.478 265.276 171.07 265.788 169.918 266.812C168.798 267.804 168.11 269.196 167.854 270.988H180.478ZM190.615 273.388C190.615 270.7 191.143 268.316 192.199 266.236C193.287 264.156 194.759 262.556 196.615 261.436C198.471 260.316 200.535 259.756 202.807 259.756C204.535 259.756 206.183 260.14 207.751 260.908C209.319 261.644 210.567 262.636 211.495 263.884V251.26H218.311V286.78H211.495V282.844C210.663 284.156 209.495 285.212 207.991 286.012C206.487 286.812 204.743 287.212 202.759 287.212C200.519 287.212 198.471 286.636 196.615 285.484C194.759 284.332 193.287 282.716 192.199 280.636C191.143 278.524 190.615 276.108 190.615 273.388ZM211.543 273.484C211.543 271.852 211.223 270.46 210.583 269.308C209.943 268.124 209.079 267.228 207.991 266.62C206.903 265.98 205.735 265.66 204.487 265.66C203.239 265.66 202.087 265.964 201.031 266.572C199.975 267.18 199.111 268.076 198.439 269.26C197.799 270.412 197.479 271.788 197.479 273.388C197.479 274.988 197.799 276.396 198.439 277.612C199.111 278.796 199.975 279.708 201.031 280.348C202.119 280.988 203.271 281.308 204.487 281.308C205.735 281.308 206.903 281.004 207.991 280.396C209.079 279.756 209.943 278.86 210.583 277.708C211.223 276.524 211.543 275.116 211.543 273.484ZM249.595 272.908C249.595 273.868 249.531 274.732 249.403 275.5H229.963C230.123 277.42 230.795 278.924 231.979 280.012C233.163 281.1 234.619 281.644 236.347 281.644C238.843 281.644 240.619 280.572 241.675 278.428H248.923C248.155 280.988 246.683 283.1 244.507 284.764C242.331 286.396 239.659 287.212 236.491 287.212C233.931 287.212 231.627 286.652 229.579 285.532C227.563 284.38 225.979 282.764 224.827 280.684C223.707 278.604 223.146 276.204 223.146 273.484C223.146 270.732 223.707 268.316 224.827 266.236C225.947 264.156 227.515 262.556 229.531 261.436C231.547 260.316 233.867 259.756 236.491 259.756C239.019 259.756 241.275 260.3 243.259 261.388C245.275 262.476 246.827 264.028 247.915 266.044C249.035 268.028 249.595 270.316 249.595 272.908ZM242.635 270.988C242.603 269.26 241.979 267.884 240.763 266.86C239.547 265.804 238.059 265.276 236.299 265.276C234.635 265.276 233.227 265.788 232.075 266.812C230.955 267.804 230.267 269.196 230.011 270.988H242.635ZM264.676 287.212C262.5 287.212 260.548 286.828 258.82 286.06C257.092 285.26 255.716 284.188 254.692 282.844C253.7 281.5 253.156 280.012 253.06 278.38H259.828C259.956 279.404 260.452 280.252 261.316 280.924C262.212 281.596 263.316 281.932 264.628 281.932C265.908 281.932 266.9 281.676 267.604 281.164C268.34 280.652 268.708 279.996 268.708 279.196C268.708 278.332 268.26 277.692 267.364 277.276C266.5 276.828 265.108 276.348 263.188 275.836C261.204 275.356 259.572 274.86 258.292 274.348C257.044 273.836 255.956 273.052 255.028 271.996C254.132 270.94 253.684 269.516 253.684 267.724C253.684 266.252 254.1 264.908 254.932 263.692C255.796 262.476 257.012 261.516 258.58 260.812C260.18 260.108 262.052 259.756 264.196 259.756C267.364 259.756 269.892 260.556 271.78 262.156C273.668 263.724 274.708 265.852 274.9 268.54H268.468C268.372 267.484 267.924 266.652 267.124 266.044C266.356 265.404 265.316 265.084 264.004 265.084C262.788 265.084 261.844 265.308 261.172 265.756C260.532 266.204 260.212 266.828 260.212 267.628C260.212 268.524 260.66 269.212 261.556 269.692C262.452 270.14 263.844 270.604 265.732 271.084C267.652 271.564 269.236 272.06 270.484 272.572C271.732 273.084 272.804 273.884 273.7 274.972C274.628 276.028 275.108 277.436 275.14 279.196C275.14 280.732 274.708 282.108 273.844 283.324C273.012 284.54 271.796 285.5 270.196 286.204C268.628 286.876 266.788 287.212 264.676 287.212ZM302.269 287.212C300.093 287.212 298.141 286.828 296.413 286.06C294.685 285.26 293.309 284.188 292.285 282.844C291.293 281.5 290.749 280.012 290.653 278.38H297.421C297.549 279.404 298.045 280.252 298.909 280.924C299.805 281.596 300.909 281.932 302.221 281.932C303.501 281.932 304.493 281.676 305.197 281.164C305.933 280.652 306.301 279.996 306.301 279.196C306.301 278.332 305.853 277.692 304.957 277.276C304.093 276.828 302.701 276.348 300.781 275.836C298.797 275.356 297.165 274.86 295.885 274.348C294.637 273.836 293.549 273.052 292.621 271.996C291.725 270.94 291.277 269.516 291.277 267.724C291.277 266.252 291.693 264.908 292.525 263.692C293.389 262.476 294.605 261.516 296.173 260.812C297.773 260.108 299.645 259.756 301.789 259.756C304.957 259.756 307.485 260.556 309.373 262.156C311.261 263.724 312.301 265.852 312.493 268.54H306.061C305.965 267.484 305.517 266.652 304.717 266.044C303.949 265.404 302.909 265.084 301.597 265.084C300.381 265.084 299.437 265.308 298.765 265.756C298.125 266.204 297.805 266.828 297.805 267.628C297.805 268.524 298.253 269.212 299.149 269.692C300.045 270.14 301.437 270.604 303.325 271.084C305.245 271.564 306.829 272.06 308.077 272.572C309.325 273.084 310.397 273.884 311.293 274.972C312.221 276.028 312.701 277.436 312.733 279.196C312.733 280.732 312.301 282.108 311.437 283.324C310.605 284.54 309.389 285.5 307.789 286.204C306.221 286.876 304.381 287.212 302.269 287.212ZM330.058 287.212C327.498 287.212 325.194 286.652 323.146 285.532C321.098 284.38 319.482 282.764 318.298 280.684C317.146 278.604 316.57 276.204 316.57 273.484C316.57 270.764 317.162 268.364 318.346 266.284C319.562 264.204 321.21 262.604 323.29 261.484C325.37 260.332 327.69 259.756 330.25 259.756C332.81 259.756 335.13 260.332 337.21 261.484C339.29 262.604 340.922 264.204 342.106 266.284C343.322 268.364 343.93 270.764 343.93 273.484C343.93 276.204 343.306 278.604 342.057 280.684C340.842 282.764 339.178 284.38 337.066 285.532C334.986 286.652 332.65 287.212 330.058 287.212ZM330.058 281.356C331.274 281.356 332.41 281.068 333.466 280.492C334.554 279.884 335.418 278.988 336.058 277.804C336.698 276.62 337.018 275.18 337.018 273.484C337.018 270.956 336.346 269.02 335.002 267.676C333.69 266.3 332.074 265.612 330.154 265.612C328.234 265.612 326.618 266.3 325.306 267.676C324.026 269.02 323.386 270.956 323.386 273.484C323.386 276.012 324.01 277.964 325.258 279.34C326.538 280.684 328.138 281.356 330.058 281.356ZM347.131 273.484C347.131 270.732 347.691 268.332 348.811 266.284C349.931 264.204 351.483 262.604 353.467 261.484C355.451 260.332 357.723 259.756 360.283 259.756C363.579 259.756 366.299 260.588 368.443 262.252C370.619 263.884 372.075 266.188 372.811 269.164H365.563C365.179 268.012 364.523 267.116 363.595 266.476C362.699 265.804 361.579 265.468 360.235 265.468C358.315 265.468 356.795 266.172 355.675 267.58C354.555 268.956 353.995 270.924 353.995 273.484C353.995 276.012 354.555 277.98 355.675 279.388C356.795 280.764 358.315 281.452 360.235 281.452C362.955 281.452 364.731 280.236 365.563 277.804H372.811C372.075 280.684 370.619 282.972 368.443 284.668C366.267 286.364 363.547 287.212 360.283 287.212C357.723 287.212 355.451 286.652 353.467 285.532C351.483 284.38 349.931 282.78 348.811 280.732C347.691 278.652 347.131 276.236 347.131 273.484ZM381.142 257.02C379.958 257.02 378.966 256.652 378.166 255.916C377.398 255.148 377.014 254.204 377.014 253.084C377.014 251.964 377.398 251.036 378.166 250.3C378.966 249.532 379.958 249.148 381.142 249.148C382.326 249.148 383.302 249.532 384.07 250.3C384.87 251.036 385.27 251.964 385.27 253.084C385.27 254.204 384.87 255.148 384.07 255.916C383.302 256.652 382.326 257.02 381.142 257.02ZM384.454 260.188V286.78H377.734V260.188H384.454ZM389.365 273.388C389.365 270.7 389.893 268.316 390.949 266.236C392.037 264.156 393.493 262.556 395.317 261.436C397.173 260.316 399.237 259.756 401.509 259.756C403.493 259.756 405.221 260.156 406.693 260.956C408.197 261.756 409.397 262.764 410.293 263.98V260.188H417.061V286.78H410.293V282.892C409.429 284.14 408.229 285.18 406.693 286.012C405.189 286.812 403.445 287.212 401.461 287.212C399.221 287.212 397.173 286.636 395.317 285.484C393.493 284.332 392.037 282.716 390.949 280.636C389.893 278.524 389.365 276.108 389.365 273.388ZM410.293 273.484C410.293 271.852 409.973 270.46 409.333 269.308C408.693 268.124 407.829 267.228 406.741 266.62C405.653 265.98 404.485 265.66 403.237 265.66C401.989 265.66 400.837 265.964 399.781 266.572C398.725 267.18 397.861 268.076 397.189 269.26C396.549 270.412 396.229 271.788 396.229 273.388C396.229 274.988 396.549 276.396 397.189 277.612C397.861 278.796 398.725 279.708 399.781 280.348C400.869 280.988 402.021 281.308 403.237 281.308C404.485 281.308 405.653 281.004 406.741 280.396C407.829 279.756 408.693 278.86 409.333 277.708C409.973 276.524 410.293 275.116 410.293 273.484ZM427.033 257.02C425.849 257.02 424.857 256.652 424.057 255.916C423.289 255.148 422.905 254.204 422.905 253.084C422.905 251.964 423.289 251.036 424.057 250.3C424.857 249.532 425.849 249.148 427.033 249.148C428.217 249.148 429.193 249.532 429.961 250.3C430.761 251.036 431.161 251.964 431.161 253.084C431.161 254.204 430.761 255.148 429.961 255.916C429.193 256.652 428.217 257.02 427.033 257.02ZM430.345 260.188V286.78H423.625V260.188H430.345ZM447.16 287.212C444.984 287.212 443.032 286.828 441.304 286.06C439.576 285.26 438.2 284.188 437.176 282.844C436.184 281.5 435.64 280.012 435.544 278.38H442.312C442.44 279.404 442.936 280.252 443.8 280.924C444.696 281.596 445.8 281.932 447.112 281.932C448.392 281.932 449.384 281.676 450.088 281.164C450.824 280.652 451.192 279.996 451.192 279.196C451.192 278.332 450.744 277.692 449.848 277.276C448.984 276.828 447.592 276.348 445.672 275.836C443.688 275.356 442.056 274.86 440.776 274.348C439.528 273.836 438.44 273.052 437.512 271.996C436.616 270.94 436.168 269.516 436.168 267.724C436.168 266.252 436.584 264.908 437.416 263.692C438.28 262.476 439.496 261.516 441.064 260.812C442.664 260.108 444.536 259.756 446.68 259.756C449.848 259.756 452.376 260.556 454.264 262.156C456.152 263.724 457.192 265.852 457.384 268.54H450.952C450.856 267.484 450.408 266.652 449.608 266.044C448.84 265.404 447.8 265.084 446.488 265.084C445.272 265.084 444.328 265.308 443.656 265.756C443.016 266.204 442.696 266.828 442.696 267.628C442.696 268.524 443.144 269.212 444.04 269.692C444.936 270.14 446.328 270.604 448.216 271.084C450.136 271.564 451.72 272.06 452.968 272.572C454.216 273.084 455.288 273.884 456.184 274.972C457.112 276.028 457.592 277.436 457.624 279.196C457.624 280.732 457.192 282.108 456.328 283.324C455.496 284.54 454.28 285.5 452.68 286.204C451.112 286.876 449.272 287.212 447.16 287.212ZM481.298 264.028C482.162 262.812 483.346 261.804 484.85 261.004C486.386 260.172 488.13 259.756 490.082 259.756C492.354 259.756 494.402 260.316 496.226 261.436C498.082 262.556 499.538 264.156 500.594 266.236C501.682 268.284 502.226 270.668 502.226 273.388C502.226 276.108 501.682 278.524 500.594 280.636C499.538 282.716 498.082 284.332 496.226 285.484C494.402 286.636 492.354 287.212 490.082 287.212C488.13 287.212 486.402 286.812 484.898 286.012C483.426 285.212 482.226 284.204 481.298 282.988V299.452H474.578V260.188H481.298V264.028ZM495.362 273.388C495.362 271.788 495.026 270.412 494.354 269.26C493.714 268.076 492.85 267.18 491.762 266.572C490.706 265.964 489.554 265.66 488.306 265.66C487.09 265.66 485.938 265.98 484.85 266.62C483.794 267.228 482.93 268.124 482.258 269.308C481.618 270.492 481.298 271.884 481.298 273.484C481.298 275.084 481.618 276.476 482.258 277.66C482.93 278.844 483.794 279.756 484.85 280.396C485.938 281.004 487.09 281.308 488.306 281.308C489.554 281.308 490.706 280.988 491.762 280.348C492.85 279.708 493.714 278.796 494.354 277.612C495.026 276.428 495.362 275.02 495.362 273.388ZM505.381 273.388C505.381 270.7 505.909 268.316 506.965 266.236C508.053 264.156 509.509 262.556 511.333 261.436C513.189 260.316 515.253 259.756 517.525 259.756C519.509 259.756 521.237 260.156 522.709 260.956C524.213 261.756 525.413 262.764 526.309 263.98V260.188H533.077V286.78H526.309V282.892C525.445 284.14 524.245 285.18 522.709 286.012C521.205 286.812 519.461 287.212 517.477 287.212C515.237 287.212 513.189 286.636 511.333 285.484C509.509 284.332 508.053 282.716 506.965 280.636C505.909 278.524 505.381 276.108 505.381 273.388ZM526.309 273.484C526.309 271.852 525.989 270.46 525.349 269.308C524.709 268.124 523.845 267.228 522.757 266.62C521.669 265.98 520.501 265.66 519.253 265.66C518.005 265.66 516.853 265.964 515.797 266.572C514.741 267.18 513.877 268.076 513.205 269.26C512.565 270.412 512.245 271.788 512.245 273.388C512.245 274.988 512.565 276.396 513.205 277.612C513.877 278.796 514.741 279.708 515.797 280.348C516.885 280.988 518.037 281.308 519.253 281.308C520.501 281.308 521.669 281.004 522.757 280.396C523.845 279.756 524.709 278.86 525.349 277.708C525.989 276.524 526.309 275.116 526.309 273.484ZM546.36 264.316C547.224 262.908 548.344 261.804 549.72 261.004C551.128 260.204 552.728 259.804 554.52 259.804V266.86H552.744C550.632 266.86 549.032 267.356 547.944 268.348C546.888 269.34 546.36 271.068 546.36 273.532V286.78H539.64V260.188H546.36V264.316ZM557.318 273.388C557.318 270.7 557.846 268.316 558.902 266.236C559.99 264.156 561.446 262.556 563.27 261.436C565.126 260.316 567.19 259.756 569.462 259.756C571.446 259.756 573.174 260.156 574.646 260.956C576.15 261.756 577.35 262.764 578.246 263.98V260.188H585.014V286.78H578.246V282.892C577.382 284.14 576.182 285.18 574.646 286.012C573.142 286.812 571.398 287.212 569.414 287.212C567.174 287.212 565.126 286.636 563.27 285.484C561.446 284.332 559.99 282.716 558.902 280.636C557.846 278.524 557.318 276.108 557.318 273.388ZM578.246 273.484C578.246 271.852 577.926 270.46 577.286 269.308C576.646 268.124 575.782 267.228 574.694 266.62C573.606 265.98 572.438 265.66 571.19 265.66C569.942 265.66 568.79 265.964 567.734 266.572C566.678 267.18 565.814 268.076 565.142 269.26C564.502 270.412 564.182 271.788 564.182 273.388C564.182 274.988 564.502 276.396 565.142 277.612C565.814 278.796 566.678 279.708 567.734 280.348C568.822 280.988 569.974 281.308 571.19 281.308C572.438 281.308 573.606 281.004 574.694 280.396C575.782 279.756 576.646 278.86 577.286 277.708C577.926 276.524 578.246 275.116 578.246 273.484ZM614.823 287.212C612.263 287.212 609.959 286.652 607.911 285.532C605.863 284.38 604.247 282.764 603.063 280.684C601.911 278.604 601.335 276.204 601.335 273.484C601.335 270.764 601.927 268.364 603.111 266.284C604.327 264.204 605.975 262.604 608.055 261.484C610.135 260.332 612.455 259.756 615.015 259.756C617.575 259.756 619.895 260.332 621.975 261.484C624.055 262.604 625.687 264.204 626.871 266.284C628.087 268.364 628.695 270.764 628.695 273.484C628.695 276.204 628.071 278.604 626.823 280.684C625.607 282.764 623.943 284.38 621.831 285.532C619.751 286.652 617.415 287.212 614.823 287.212ZM614.823 281.356C616.039 281.356 617.175 281.068 618.231 280.492C619.319 279.884 620.183 278.988 620.823 277.804C621.463 276.62 621.783 275.18 621.783 273.484C621.783 270.956 621.111 269.02 619.767 267.676C618.455 266.3 616.839 265.612 614.919 265.612C612.999 265.612 611.383 266.3 610.071 267.676C608.791 269.02 608.151 270.956 608.151 273.484C608.151 276.012 608.775 277.964 610.023 279.34C611.303 280.684 612.903 281.356 614.823 281.356ZM651.782 264.076C652.646 262.796 653.83 261.756 655.334 260.956C656.87 260.156 658.614 259.756 660.566 259.756C662.838 259.756 664.886 260.316 666.71 261.436C668.566 262.556 670.022 264.156 671.078 266.236C672.166 268.284 672.71 270.668 672.71 273.388C672.71 276.108 672.166 278.524 671.078 280.636C670.022 282.716 668.566 284.332 666.71 285.484C664.886 286.636 662.838 287.212 660.566 287.212C658.582 287.212 656.838 286.828 655.334 286.06C653.862 285.26 652.678 284.236 651.782 282.988V286.78H645.062V251.26H651.782V264.076ZM665.846 273.388C665.846 271.788 665.51 270.412 664.838 269.26C664.198 268.076 663.334 267.18 662.246 266.572C661.19 265.964 660.038 265.66 658.79 265.66C657.574 265.66 656.422 265.98 655.334 266.62C654.278 267.228 653.414 268.124 652.742 269.308C652.102 270.492 651.782 271.884 651.782 273.484C651.782 275.084 652.102 276.476 652.742 277.66C653.414 278.844 654.278 279.756 655.334 280.396C656.422 281.004 657.574 281.308 658.79 281.308C660.038 281.308 661.19 280.988 662.246 280.348C663.334 279.708 664.198 278.796 664.838 277.612C665.51 276.428 665.846 275.02 665.846 273.388ZM684.313 264.316C685.177 262.908 686.297 261.804 687.673 261.004C689.081 260.204 690.681 259.804 692.473 259.804V266.86H690.697C688.585 266.86 686.985 267.356 685.897 268.348C684.841 269.34 684.313 271.068 684.313 273.532V286.78H677.593V260.188H684.313V264.316ZM721.72 272.908C721.72 273.868 721.656 274.732 721.528 275.5H702.088C702.248 277.42 702.92 278.924 704.104 280.012C705.288 281.1 706.744 281.644 708.472 281.644C710.968 281.644 712.744 280.572 713.8 278.428H721.048C720.28 280.988 718.808 283.1 716.632 284.764C714.456 286.396 711.784 287.212 708.616 287.212C706.056 287.212 703.752 286.652 701.704 285.532C699.688 284.38 698.104 282.764 696.952 280.684C695.832 278.604 695.271 276.204 695.271 273.484C695.271 270.732 695.832 268.316 696.952 266.236C698.072 264.156 699.64 262.556 701.656 261.436C703.672 260.316 705.992 259.756 708.616 259.756C711.144 259.756 713.4 260.3 715.384 261.388C717.4 262.476 718.952 264.028 720.04 266.044C721.16 268.028 721.72 270.316 721.72 272.908ZM714.76 270.988C714.728 269.26 714.104 267.884 712.888 266.86C711.672 265.804 710.184 265.276 708.424 265.276C706.76 265.276 705.352 265.788 704.2 266.812C703.08 267.804 702.392 269.196 702.136 270.988H714.76ZM737.713 280.588L744.433 260.188H751.585L741.745 286.78H733.585L723.793 260.188H730.993L737.713 280.588ZM780.079 272.908C780.079 273.868 780.015 274.732 779.887 275.5H760.447C760.607 277.42 761.279 278.924 762.463 280.012C763.647 281.1 765.103 281.644 766.831 281.644C769.327 281.644 771.103 280.572 772.159 278.428H779.407C778.639 280.988 777.167 283.1 774.991 284.764C772.815 286.396 770.143 287.212 766.975 287.212C764.415 287.212 762.111 286.652 760.063 285.532C758.047 284.38 756.463 282.764 755.311 280.684C754.191 278.604 753.631 276.204 753.631 273.484C753.631 270.732 754.191 268.316 755.311 266.236C756.431 264.156 757.999 262.556 760.015 261.436C762.031 260.316 764.351 259.756 766.975 259.756C769.503 259.756 771.759 260.3 773.743 261.388C775.759 262.476 777.311 264.028 778.399 266.044C779.519 268.028 780.079 270.316 780.079 272.908ZM773.119 270.988C773.087 269.26 772.463 267.884 771.247 266.86C770.031 265.804 768.543 265.276 766.783 265.276C765.119 265.276 763.711 265.788 762.559 266.812C761.439 267.804 760.751 269.196 760.495 270.988H773.119ZM508.709 345.388C508.709 342.7 509.237 340.316 510.293 338.236C511.381 336.156 512.853 334.556 514.709 333.436C516.565 332.316 518.629 331.756 520.901 331.756C522.629 331.756 524.277 332.14 525.845 332.908C527.413 333.644 528.661 334.636 529.589 335.884V323.26H536.405V358.78H529.589V354.844C528.757 356.156 527.589 357.212 526.085 358.012C524.581 358.812 522.837 359.212 520.853 359.212C518.613 359.212 516.565 358.636 514.709 357.484C512.853 356.332 511.381 354.716 510.293 352.636C509.237 350.524 508.709 348.108 508.709 345.388ZM529.637 345.484C529.637 343.852 529.317 342.46 528.677 341.308C528.037 340.124 527.173 339.228 526.085 338.62C524.997 337.98 523.829 337.66 522.581 337.66C521.333 337.66 520.181 337.964 519.125 338.572C518.069 339.18 517.205 340.076 516.533 341.26C515.893 342.412 515.573 343.788 515.573 345.388C515.573 346.988 515.893 348.396 516.533 349.612C517.205 350.796 518.069 351.708 519.125 352.348C520.213 352.988 521.365 353.308 522.581 353.308C523.829 353.308 524.997 353.004 526.085 352.396C527.173 351.756 528.037 350.86 528.677 349.708C529.317 348.524 529.637 347.116 529.637 345.484ZM554.776 359.212C552.216 359.212 549.912 358.652 547.864 357.532C545.816 356.38 544.2 354.764 543.016 352.684C541.864 350.604 541.288 348.204 541.288 345.484C541.288 342.764 541.88 340.364 543.064 338.284C544.28 336.204 545.928 334.604 548.008 333.484C550.088 332.332 552.408 331.756 554.968 331.756C557.528 331.756 559.848 332.332 561.928 333.484C564.008 334.604 565.64 336.204 566.824 338.284C568.04 340.364 568.648 342.764 568.648 345.484C568.648 348.204 568.024 350.604 566.776 352.684C565.56 354.764 563.896 356.38 561.784 357.532C559.704 358.652 557.368 359.212 554.776 359.212ZM554.776 353.356C555.992 353.356 557.128 353.068 558.184 352.492C559.272 351.884 560.136 350.988 560.776 349.804C561.416 348.62 561.736 347.18 561.736 345.484C561.736 342.956 561.064 341.02 559.72 339.676C558.408 338.3 556.792 337.612 554.872 337.612C552.952 337.612 551.336 338.3 550.024 339.676C548.744 341.02 548.104 342.956 548.104 345.484C548.104 348.012 548.728 349.964 549.976 351.34C551.256 352.684 552.856 353.356 554.776 353.356ZM618.039 331.804C621.303 331.804 623.927 332.812 625.911 334.828C627.927 336.812 628.935 339.596 628.935 343.18V358.78H622.215V344.092C622.215 342.012 621.687 340.428 620.631 339.34C619.575 338.22 618.135 337.66 616.311 337.66C614.487 337.66 613.031 338.22 611.943 339.34C610.887 340.428 610.359 342.012 610.359 344.092V358.78H603.639V344.092C603.639 342.012 603.111 340.428 602.055 339.34C600.999 338.22 599.559 337.66 597.735 337.66C595.879 337.66 594.407 338.22 593.319 339.34C592.263 340.428 591.735 342.012 591.735 344.092V358.78H585.015V332.188H591.735V335.404C592.599 334.284 593.703 333.404 595.047 332.764C596.423 332.124 597.927 331.804 599.559 331.804C601.639 331.804 603.495 332.252 605.127 333.148C606.759 334.012 608.023 335.26 608.919 336.892C609.783 335.356 611.031 334.124 612.663 333.196C614.327 332.268 616.119 331.804 618.039 331.804ZM660.032 344.908C660.032 345.868 659.968 346.732 659.84 347.5H640.4C640.56 349.42 641.232 350.924 642.416 352.012C643.6 353.1 645.056 353.644 646.784 353.644C649.28 353.644 651.056 352.572 652.112 350.428H659.36C658.592 352.988 657.12 355.1 654.944 356.764C652.768 358.396 650.096 359.212 646.928 359.212C644.368 359.212 642.064 358.652 640.016 357.532C638 356.38 636.416 354.764 635.264 352.684C634.144 350.604 633.584 348.204 633.584 345.484C633.584 342.732 634.144 340.316 635.264 338.236C636.384 336.156 637.952 334.556 639.968 333.436C641.984 332.316 644.304 331.756 646.928 331.756C649.456 331.756 651.712 332.3 653.696 333.388C655.712 334.476 657.264 336.028 658.352 338.044C659.472 340.028 660.032 342.316 660.032 344.908ZM653.072 342.988C653.04 341.26 652.416 339.884 651.2 338.86C649.984 337.804 648.496 337.276 646.736 337.276C645.072 337.276 643.664 337.788 642.512 338.812C641.392 339.804 640.704 341.196 640.448 342.988H653.072ZM690.041 332.188V358.78H683.273V355.42C682.409 356.572 681.273 357.484 679.865 358.156C678.489 358.796 676.985 359.116 675.353 359.116C673.273 359.116 671.433 358.684 669.833 357.82C668.233 356.924 666.969 355.628 666.041 353.932C665.145 352.204 664.697 350.156 664.697 347.788V332.188H671.417V346.828C671.417 348.94 671.945 350.572 673.001 351.724C674.057 352.844 675.497 353.404 677.321 353.404C679.177 353.404 680.633 352.844 681.689 351.724C682.745 350.572 683.273 348.94 683.273 346.828V332.188H690.041ZM151.136 409.708V422.572C151.136 423.468 151.344 424.124 151.76 424.54C152.208 424.924 152.944 425.116 153.968 425.116H157.088V430.78H152.864C147.2 430.78 144.368 428.028 144.368 422.524V409.708H141.2V404.188H144.368V397.612H151.136V404.188H157.088V409.708H151.136ZM168.641 408.316C169.505 406.908 170.625 405.804 172.001 405.004C173.409 404.204 175.009 403.804 176.801 403.804V410.86H175.025C172.913 410.86 171.313 411.356 170.225 412.348C169.169 413.34 168.641 415.068 168.641 417.532V430.78H161.921V404.188H168.641V408.316ZM179.6 417.388C179.6 414.7 180.128 412.316 181.184 410.236C182.272 408.156 183.728 406.556 185.552 405.436C187.408 404.316 189.472 403.756 191.744 403.756C193.728 403.756 195.456 404.156 196.928 404.956C198.432 405.756 199.632 406.764 200.528 407.98V404.188H207.296V430.78H200.528V426.892C199.664 428.14 198.464 429.18 196.928 430.012C195.424 430.812 193.68 431.212 191.696 431.212C189.456 431.212 187.408 430.636 185.552 429.484C183.728 428.332 182.272 426.716 181.184 424.636C180.128 422.524 179.6 420.108 179.6 417.388ZM200.528 417.484C200.528 415.852 200.208 414.46 199.568 413.308C198.928 412.124 198.064 411.228 196.976 410.62C195.888 409.98 194.72 409.66 193.472 409.66C192.224 409.66 191.072 409.964 190.016 410.572C188.96 411.18 188.096 412.076 187.424 413.26C186.784 414.412 186.464 415.788 186.464 417.388C186.464 418.988 186.784 420.396 187.424 421.612C188.096 422.796 188.96 423.708 190.016 424.348C191.104 424.988 192.256 425.308 193.472 425.308C194.72 425.308 195.888 425.004 196.976 424.396C198.064 423.756 198.928 422.86 199.568 421.708C200.208 420.524 200.528 419.116 200.528 417.484ZM220.579 408.076C221.443 406.796 222.627 405.756 224.131 404.956C225.667 404.156 227.411 403.756 229.363 403.756C231.635 403.756 233.683 404.316 235.507 405.436C237.363 406.556 238.819 408.156 239.875 410.236C240.963 412.284 241.507 414.668 241.507 417.388C241.507 420.108 240.963 422.524 239.875 424.636C238.819 426.716 237.363 428.332 235.507 429.484C233.683 430.636 231.635 431.212 229.363 431.212C227.379 431.212 225.635 430.828 224.131 430.06C222.659 429.26 221.475 428.236 220.579 426.988V430.78H213.859V395.26H220.579V408.076ZM234.643 417.388C234.643 415.788 234.307 414.412 233.635 413.26C232.995 412.076 232.131 411.18 231.043 410.572C229.987 409.964 228.835 409.66 227.587 409.66C226.371 409.66 225.219 409.98 224.131 410.62C223.075 411.228 222.211 412.124 221.539 413.308C220.899 414.492 220.579 415.884 220.579 417.484C220.579 419.084 220.899 420.476 221.539 421.66C222.211 422.844 223.075 423.756 224.131 424.396C225.219 425.004 226.371 425.308 227.587 425.308C228.835 425.308 229.987 424.988 231.043 424.348C232.131 423.708 232.995 422.796 233.635 421.612C234.307 420.428 234.643 419.02 234.643 417.388ZM244.662 417.388C244.662 414.7 245.19 412.316 246.246 410.236C247.334 408.156 248.79 406.556 250.614 405.436C252.47 404.316 254.534 403.756 256.806 403.756C258.79 403.756 260.518 404.156 261.99 404.956C263.494 405.756 264.694 406.764 265.59 407.98V404.188H272.358V430.78H265.59V426.892C264.726 428.14 263.526 429.18 261.99 430.012C260.486 430.812 258.742 431.212 256.758 431.212C254.518 431.212 252.47 430.636 250.614 429.484C248.79 428.332 247.334 426.716 246.246 424.636C245.19 422.524 244.662 420.108 244.662 417.388ZM265.59 417.484C265.59 415.852 265.27 414.46 264.63 413.308C263.99 412.124 263.126 411.228 262.038 410.62C260.95 409.98 259.782 409.66 258.534 409.66C257.286 409.66 256.134 409.964 255.078 410.572C254.022 411.18 253.158 412.076 252.486 413.26C251.846 414.412 251.526 415.788 251.526 417.388C251.526 418.988 251.846 420.396 252.486 421.612C253.158 422.796 254.022 423.708 255.078 424.348C256.166 424.988 257.318 425.308 258.534 425.308C259.782 425.308 260.95 425.004 262.038 424.396C263.126 423.756 263.99 422.86 264.63 421.708C265.27 420.524 265.59 419.116 265.59 417.484ZM285.641 395.26V430.78H278.921V395.26H285.641ZM307.257 403.804C309.273 403.804 311.065 404.252 312.633 405.148C314.201 406.012 315.417 407.308 316.281 409.036C317.177 410.732 317.625 412.78 317.625 415.18V430.78H310.905V416.092C310.905 413.98 310.377 412.364 309.321 411.244C308.265 410.092 306.825 409.516 305.001 409.516C303.145 409.516 301.673 410.092 300.585 411.244C299.529 412.364 299.001 413.98 299.001 416.092V430.78H292.281V395.26H299.001V407.5C299.865 406.348 301.017 405.452 302.457 404.812C303.897 404.14 305.497 403.804 307.257 403.804ZM335.823 431.212C333.263 431.212 330.959 430.652 328.911 429.532C326.863 428.38 325.247 426.764 324.063 424.684C322.911 422.604 322.335 420.204 322.335 417.484C322.335 414.764 322.927 412.364 324.111 410.284C325.327 408.204 326.975 406.604 329.055 405.484C331.135 404.332 333.455 403.756 336.015 403.756C338.575 403.756 340.895 404.332 342.975 405.484C345.055 406.604 346.687 408.204 347.871 410.284C349.087 412.364 349.695 414.764 349.695 417.484C349.695 420.204 349.071 422.604 347.823 424.684C346.607 426.764 344.943 428.38 342.831 429.532C340.751 430.652 338.415 431.212 335.823 431.212ZM335.823 425.356C337.039 425.356 338.175 425.068 339.231 424.492C340.319 423.884 341.183 422.988 341.823 421.804C342.463 420.62 342.783 419.18 342.783 417.484C342.783 414.956 342.111 413.02 340.767 411.676C339.455 410.3 337.839 409.612 335.919 409.612C333.999 409.612 332.383 410.3 331.071 411.676C329.791 413.02 329.151 414.956 329.151 417.484C329.151 420.012 329.775 421.964 331.023 423.34C332.303 424.684 333.903 425.356 335.823 425.356ZM357.601 431.116C356.385 431.116 355.377 430.748 354.577 430.012C353.809 429.244 353.425 428.3 353.425 427.18C353.425 426.06 353.809 425.132 354.577 424.396C355.377 423.628 356.385 423.244 357.601 423.244C358.785 423.244 359.761 423.628 360.529 424.396C361.297 425.132 361.681 426.06 361.681 427.18C361.681 428.3 361.297 429.244 360.529 430.012C359.761 430.748 358.785 431.116 357.601 431.116Z" fill="white"/>
<path d="M141.584 345.484C141.584 342.732 142.144 340.332 143.264 338.284C144.384 336.204 145.936 334.604 147.92 333.484C149.904 332.332 152.176 331.756 154.736 331.756C158.032 331.756 160.752 332.588 162.896 334.252C165.072 335.884 166.528 338.188 167.264 341.164H160.016C159.632 340.012 158.976 339.116 158.048 338.476C157.152 337.804 156.032 337.468 154.688 337.468C152.768 337.468 151.248 338.172 150.128 339.58C149.008 340.956 148.448 342.924 148.448 345.484C148.448 348.012 149.008 349.98 150.128 351.388C151.248 352.764 152.768 353.452 154.688 353.452C157.408 353.452 159.184 352.236 160.016 349.804H167.264C166.528 352.684 165.072 354.972 162.896 356.668C160.72 358.364 158 359.212 154.736 359.212C152.176 359.212 149.904 358.652 147.92 357.532C145.936 356.38 144.384 354.78 143.264 352.732C142.144 350.652 141.584 348.236 141.584 345.484ZM183.995 359.212C181.435 359.212 179.131 358.652 177.083 357.532C175.035 356.38 173.419 354.764 172.235 352.684C171.083 350.604 170.507 348.204 170.507 345.484C170.507 342.764 171.099 340.364 172.283 338.284C173.499 336.204 175.147 334.604 177.227 333.484C179.307 332.332 181.627 331.756 184.187 331.756C186.747 331.756 189.067 332.332 191.147 333.484C193.227 334.604 194.859 336.204 196.043 338.284C197.259 340.364 197.867 342.764 197.867 345.484C197.867 348.204 197.243 350.604 195.995 352.684C194.779 354.764 193.115 356.38 191.003 357.532C188.923 358.652 186.587 359.212 183.995 359.212ZM183.995 353.356C185.211 353.356 186.347 353.068 187.403 352.492C188.491 351.884 189.355 350.988 189.995 349.804C190.635 348.62 190.955 347.18 190.955 345.484C190.955 342.956 190.283 341.02 188.939 339.676C187.627 338.3 186.011 337.612 184.091 337.612C182.171 337.612 180.555 338.3 179.243 339.676C177.963 341.02 177.323 342.956 177.323 345.484C177.323 348.012 177.947 349.964 179.195 351.34C180.475 352.684 182.075 353.356 183.995 353.356ZM217.532 331.804C220.7 331.804 223.26 332.812 225.212 334.828C227.164 336.812 228.14 339.596 228.14 343.18V358.78H221.42V344.092C221.42 341.98 220.892 340.364 219.836 339.244C218.78 338.092 217.34 337.516 215.516 337.516C213.66 337.516 212.188 338.092 211.1 339.244C210.044 340.364 209.516 341.98 209.516 344.092V358.78H202.796V332.188H209.516V335.5C210.412 334.348 211.548 333.452 212.924 332.812C214.332 332.14 215.868 331.804 217.532 331.804ZM249.507 331.804C251.523 331.804 253.315 332.252 254.883 333.148C256.451 334.012 257.667 335.308 258.531 337.036C259.427 338.732 259.875 340.78 259.875 343.18V358.78H253.155V344.092C253.155 341.98 252.627 340.364 251.571 339.244C250.515 338.092 249.075 337.516 247.251 337.516C245.395 337.516 243.923 338.092 242.835 339.244C241.779 340.364 241.251 341.98 241.251 344.092V358.78H234.531V323.26H241.251V335.5C242.115 334.348 243.267 333.452 244.707 332.812C246.147 332.14 247.747 331.804 249.507 331.804ZM290.985 344.908C290.985 345.868 290.921 346.732 290.793 347.5H271.353C271.513 349.42 272.185 350.924 273.369 352.012C274.553 353.1 276.009 353.644 277.737 353.644C280.233 353.644 282.009 352.572 283.065 350.428H290.313C289.545 352.988 288.073 355.1 285.897 356.764C283.721 358.396 281.049 359.212 277.881 359.212C275.321 359.212 273.017 358.652 270.969 357.532C268.953 356.38 267.369 354.764 266.217 352.684C265.097 350.604 264.537 348.204 264.537 345.484C264.537 342.732 265.097 340.316 266.217 338.236C267.337 336.156 268.905 334.556 270.921 333.436C272.937 332.316 275.257 331.756 277.881 331.756C280.409 331.756 282.665 332.3 284.649 333.388C286.665 334.476 288.217 336.028 289.305 338.044C290.425 340.028 290.985 342.316 290.985 344.908ZM284.025 342.988C283.993 341.26 283.369 339.884 282.153 338.86C280.937 337.804 279.449 337.276 277.689 337.276C276.025 337.276 274.617 337.788 273.465 338.812C272.345 339.804 271.657 341.196 271.401 342.988H284.025ZM294.162 345.484C294.162 342.732 294.722 340.332 295.842 338.284C296.962 336.204 298.514 334.604 300.498 333.484C302.482 332.332 304.754 331.756 307.314 331.756C310.61 331.756 313.33 332.588 315.474 334.252C317.65 335.884 319.106 338.188 319.842 341.164H312.594C312.21 340.012 311.554 339.116 310.626 338.476C309.73 337.804 308.61 337.468 307.266 337.468C305.346 337.468 303.826 338.172 302.706 339.58C301.586 340.956 301.026 342.924 301.026 345.484C301.026 348.012 301.586 349.98 302.706 351.388C303.826 352.764 305.346 353.452 307.266 353.452C309.986 353.452 311.762 352.236 312.594 349.804H319.842C319.106 352.684 317.65 354.972 315.474 356.668C313.298 358.364 310.578 359.212 307.314 359.212C304.754 359.212 302.482 358.652 300.498 357.532C298.514 356.38 296.962 354.78 295.842 352.732C294.722 350.652 294.162 348.236 294.162 345.484ZM328.173 329.02C326.989 329.02 325.997 328.652 325.197 327.916C324.429 327.148 324.045 326.204 324.045 325.084C324.045 323.964 324.429 323.036 325.197 322.3C325.997 321.532 326.989 321.148 328.173 321.148C329.357 321.148 330.333 321.532 331.101 322.3C331.901 323.036 332.301 323.964 332.301 325.084C332.301 326.204 331.901 327.148 331.101 327.916C330.333 328.652 329.357 329.02 328.173 329.02ZM331.485 332.188V358.78H324.765V332.188H331.485ZM371.149 331.804C374.413 331.804 377.037 332.812 379.021 334.828C381.037 336.812 382.045 339.596 382.045 343.18V358.78H375.325V344.092C375.325 342.012 374.797 340.428 373.741 339.34C372.685 338.22 371.245 337.66 369.421 337.66C367.597 337.66 366.141 338.22 365.053 339.34C363.997 340.428 363.469 342.012 363.469 344.092V358.78H356.749V344.092C356.749 342.012 356.221 340.428 355.165 339.34C354.109 338.22 352.669 337.66 350.845 337.66C348.989 337.66 347.517 338.22 346.429 339.34C345.373 340.428 344.845 342.012 344.845 344.092V358.78H338.125V332.188H344.845V335.404C345.709 334.284 346.813 333.404 348.157 332.764C349.533 332.124 351.037 331.804 352.669 331.804C354.749 331.804 356.605 332.252 358.237 333.148C359.869 334.012 361.133 335.26 362.029 336.892C362.893 335.356 364.141 334.124 365.773 333.196C367.437 332.268 369.229 331.804 371.149 331.804ZM413.141 344.908C413.141 345.868 413.077 346.732 412.949 347.5H393.509C393.669 349.42 394.341 350.924 395.525 352.012C396.709 353.1 398.165 353.644 399.893 353.644C402.389 353.644 404.165 352.572 405.221 350.428H412.469C411.701 352.988 410.229 355.1 408.053 356.764C405.877 358.396 403.205 359.212 400.037 359.212C397.477 359.212 395.173 358.652 393.125 357.532C391.109 356.38 389.525 354.764 388.373 352.684C387.253 350.604 386.693 348.204 386.693 345.484C386.693 342.732 387.253 340.316 388.373 338.236C389.493 336.156 391.061 334.556 393.077 333.436C395.093 332.316 397.413 331.756 400.037 331.756C402.565 331.756 404.821 332.3 406.805 333.388C408.821 334.476 410.373 336.028 411.461 338.044C412.581 340.028 413.141 342.316 413.141 344.908ZM406.181 342.988C406.149 341.26 405.525 339.884 404.309 338.86C403.093 337.804 401.605 337.276 399.845 337.276C398.181 337.276 396.773 337.788 395.621 338.812C394.501 339.804 393.813 341.196 393.557 342.988H406.181ZM432.782 331.804C435.95 331.804 438.51 332.812 440.462 334.828C442.414 336.812 443.39 339.596 443.39 343.18V358.78H436.67V344.092C436.67 341.98 436.142 340.364 435.086 339.244C434.03 338.092 432.59 337.516 430.766 337.516C428.91 337.516 427.438 338.092 426.35 339.244C425.294 340.364 424.766 341.98 424.766 344.092V358.78H418.046V332.188H424.766V335.5C425.662 334.348 426.798 333.452 428.174 332.812C429.582 332.14 431.118 331.804 432.782 331.804ZM457.605 337.708V350.572C457.605 351.468 457.813 352.124 458.229 352.54C458.677 352.924 459.413 353.116 460.437 353.116H463.557V358.78H459.333C453.669 358.78 450.837 356.028 450.837 350.524V337.708H447.669V332.188H450.837V325.612H457.605V332.188H463.557V337.708H457.605ZM480.198 359.212C477.638 359.212 475.334 358.652 473.286 357.532C471.238 356.38 469.622 354.764 468.438 352.684C467.286 350.604 466.71 348.204 466.71 345.484C466.71 342.764 467.302 340.364 468.486 338.284C469.702 336.204 471.35 334.604 473.43 333.484C475.51 332.332 477.83 331.756 480.39 331.756C482.95 331.756 485.27 332.332 487.35 333.484C489.43 334.604 491.062 336.204 492.246 338.284C493.462 340.364 494.07 342.764 494.07 345.484C494.07 348.204 493.446 350.604 492.198 352.684C490.982 354.764 489.318 356.38 487.206 357.532C485.126 358.652 482.79 359.212 480.198 359.212ZM480.198 353.356C481.414 353.356 482.55 353.068 483.606 352.492C484.694 351.884 485.558 350.988 486.198 349.804C486.838 348.62 487.158 347.18 487.158 345.484C487.158 342.956 486.486 341.02 485.142 339.676C483.83 338.3 482.214 337.612 480.294 337.612C478.374 337.612 476.758 338.3 475.446 339.676C474.166 341.02 473.526 342.956 473.526 345.484C473.526 348.012 474.15 349.964 475.398 351.34C476.678 352.684 478.278 353.356 480.198 353.356Z" fill="#91C4FB"/>
<rect x="140" y="478.262" width="160" height="8.089" rx="4.0445" fill="url(#paint0_linear_103_6)"/>
<rect x="1172" y="163.802" width="128" height="324.571" fill="#092440"/>
<rect x="1211" y="455.006" width="51" height="178.969" fill="#27415C"/>
<path d="M1229.89 513.579C1229.89 512.8 1230.03 512.096 1230.29 511.466C1230.56 510.847 1230.94 510.356 1231.44 509.993C1231.94 509.63 1232.53 509.442 1233.22 509.431L1233.22 511.831C1232.76 511.863 1232.4 512.024 1232.13 512.312C1231.87 512.611 1231.73 513.017 1231.73 513.529C1231.73 514.051 1231.86 514.462 1232.1 514.76C1232.36 515.058 1232.69 515.207 1233.1 515.207C1233.43 515.206 1233.7 515.105 1233.91 514.902C1234.12 514.699 1234.29 514.443 1234.41 514.133C1234.53 513.834 1234.67 513.418 1234.82 512.885C1235.03 512.159 1235.24 511.567 1235.44 511.108C1235.66 510.66 1235.97 510.27 1236.39 509.939C1236.81 509.618 1237.38 509.457 1238.08 509.456C1238.74 509.456 1239.32 509.62 1239.81 509.95C1240.3 510.28 1240.67 510.744 1240.93 511.341C1241.2 511.938 1241.33 512.62 1241.33 513.388C1241.34 514.54 1241.05 515.474 1240.49 516.189C1239.94 516.915 1239.16 517.316 1238.15 517.392L1238.15 514.928C1238.54 514.907 1238.85 514.741 1239.1 514.431C1239.35 514.132 1239.48 513.732 1239.48 513.231C1239.48 512.793 1239.36 512.441 1239.14 512.175C1238.92 511.919 1238.59 511.792 1238.16 511.792C1237.87 511.793 1237.61 511.889 1237.41 512.081C1237.22 512.284 1237.06 512.53 1236.93 512.818C1236.82 513.117 1236.68 513.533 1236.52 514.066C1236.31 514.792 1236.09 515.384 1235.88 515.843C1235.67 516.302 1235.35 516.697 1234.92 517.028C1234.5 517.36 1233.94 517.526 1233.24 517.527C1232.65 517.527 1232.09 517.373 1231.58 517.065C1231.07 516.756 1230.65 516.303 1230.34 515.706C1230.05 515.109 1229.9 514.4 1229.89 513.579ZM1241.18 521.699L1230.02 521.713L1230.01 519.473L1241.18 519.459L1241.18 521.699ZM1237.84 531.692C1238.31 531.435 1238.66 531.083 1238.91 530.635C1239.15 530.186 1239.27 529.663 1239.27 529.066C1239.27 528.405 1239.12 527.818 1238.82 527.307C1238.52 526.795 1238.1 526.396 1237.54 526.108C1236.99 525.821 1236.35 525.678 1235.62 525.679C1234.87 525.68 1234.22 525.825 1233.67 526.113C1233.12 526.413 1232.69 526.824 1232.39 527.347C1232.09 527.87 1231.94 528.478 1231.95 529.171C1231.95 530.025 1232.17 530.723 1232.62 531.267C1233.08 531.81 1233.71 532.167 1234.53 532.336L1234.52 528.496L1236.23 528.494L1236.24 534.542L1234.29 534.544C1233.51 534.396 1232.79 534.077 1232.13 533.587C1231.47 533.097 1230.93 532.463 1230.52 531.685C1230.13 530.918 1229.93 530.054 1229.93 529.094C1229.93 528.017 1230.17 527.04 1230.65 526.165C1231.14 525.3 1231.81 524.617 1232.68 524.114C1233.54 523.623 1234.52 523.376 1235.62 523.375C1236.72 523.373 1237.7 523.617 1238.56 524.107C1239.44 524.607 1240.12 525.289 1240.6 526.152C1241.09 527.026 1241.34 527.997 1241.34 529.063C1241.34 530.322 1241.03 531.416 1240.41 532.345C1239.81 533.273 1238.95 533.914 1237.84 534.268L1237.84 531.692ZM1232.17 543.052L1232.17 538.604L1230.04 537.871L1230.03 535.519L1241.22 539.521L1241.23 542.129L1230.05 546.159L1230.04 543.791L1232.17 543.052ZM1233.96 542.442L1238.63 540.82L1233.96 539.21L1233.96 542.442ZM1236.71 554.468L1234.83 554.47L1234.82 547.686L1236.7 547.684L1236.71 554.468ZM1241.24 569.15L1230.08 569.164L1230.07 566.924L1237.34 566.915L1230.07 563.932L1230.07 562.236L1237.33 559.219L1230.06 559.228L1230.06 556.988L1241.23 556.974L1241.23 559.518L1232.93 563.081L1241.24 566.622L1241.24 569.15ZM1239.44 573.607L1236.64 573.611L1236.65 577.371L1234.87 577.373L1234.87 573.613L1231.91 573.617L1231.91 577.857L1230.09 577.859L1230.08 571.379L1241.26 571.365L1241.27 577.845L1239.45 577.847L1239.44 573.607Z" fill="white"/>
<g clip-path="url(#clip0_103_6)">
<path d="M1229 234.729C1229 234.089 1229.53 233.57 1230.17 233.57H1243.82C1244.47 233.57 1245 234.089 1245 234.729V248.589C1245 249.229 1244.47 249.748 1243.82 249.748H1230.17C1229.53 249.748 1229 249.229 1229 248.589V234.729ZM1233.94 247.113V239.807H1231.54V247.113H1233.94ZM1232.74 238.809C1233.58 238.809 1234.1 238.249 1234.1 237.548C1234.09 236.831 1233.58 236.286 1232.76 236.286C1231.94 236.286 1231.4 236.832 1231.4 237.548C1231.4 238.249 1231.92 238.809 1232.73 238.809H1232.74ZM1237.65 247.113V243.033C1237.65 242.815 1237.67 242.596 1237.73 242.44C1237.9 242.005 1238.3 241.553 1238.96 241.553C1239.83 241.553 1240.18 242.222 1240.18 243.205V247.113H1242.58V242.923C1242.58 240.678 1241.4 239.635 1239.82 239.635C1238.54 239.635 1237.97 240.342 1237.65 240.841V240.866H1237.64C1237.64 240.858 1237.65 240.849 1237.65 240.841V239.807H1235.25C1235.28 240.493 1235.25 247.113 1235.25 247.113H1237.65Z" fill="#858585"/>
</g>
<g clip-path="url(#clip1_103_6)">
<path d="M1237 283.115C1232.58 283.115 1229 286.735 1229 291.204C1229 294.783 1231.29 297.807 1234.47 298.878C1234.87 298.949 1235.02 298.707 1235.02 298.494C1235.02 298.302 1235.01 297.665 1235.01 296.988C1233 297.362 1232.48 296.492 1232.32 296.037C1232.23 295.805 1231.84 295.087 1231.5 294.895C1231.22 294.743 1230.82 294.369 1231.49 294.359C1232.12 294.349 1232.57 294.945 1232.72 295.188C1233.44 296.411 1234.59 296.067 1235.05 295.855C1235.12 295.329 1235.33 294.975 1235.56 294.773C1233.78 294.571 1231.92 293.873 1231.92 290.779C1231.92 289.9 1232.23 289.172 1232.74 288.605C1232.66 288.403 1232.38 287.574 1232.82 286.462C1232.82 286.462 1233.49 286.249 1235.02 287.291C1235.66 287.109 1236.34 287.018 1237.02 287.018C1237.7 287.018 1238.38 287.109 1239.02 287.291C1240.55 286.239 1241.22 286.462 1241.22 286.462C1241.66 287.574 1241.38 288.403 1241.3 288.605C1241.81 289.172 1242.12 289.889 1242.12 290.779C1242.12 293.883 1240.25 294.571 1238.47 294.773C1238.76 295.026 1239.01 295.511 1239.01 296.27C1239.01 297.352 1239 298.221 1239 298.494C1239 298.707 1239.15 298.959 1239.55 298.878C1241.14 298.336 1242.52 297.304 1243.5 295.928C1244.47 294.551 1245 292.899 1245 291.204C1245 286.735 1241.42 283.115 1237 283.115Z" fill="#858585"/>
</g>
<g clip-path="url(#clip2_103_6)">
<path d="M1234.03 350.86C1240.06 350.86 1243.37 345.802 1243.37 341.422C1243.37 341.281 1243.37 341.137 1243.36 340.996C1244 340.525 1244.56 339.942 1245 339.275C1244.4 339.543 1243.76 339.719 1243.11 339.799C1243.8 339.384 1244.31 338.731 1244.56 337.961C1243.91 338.348 1243.21 338.619 1242.47 338.763C1241.98 338.23 1241.32 337.877 1240.61 337.759C1239.89 337.64 1239.16 337.763 1238.53 338.108C1237.89 338.453 1237.38 339 1237.08 339.666C1236.78 340.332 1236.71 341.079 1236.88 341.791C1235.57 341.724 1234.29 341.382 1233.13 340.784C1231.96 340.187 1230.93 339.349 1230.11 338.323C1229.69 339.055 1229.56 339.919 1229.75 340.742C1229.94 341.565 1230.43 342.285 1231.13 342.754C1230.61 342.736 1230.1 342.595 1229.64 342.342V342.387C1229.64 343.153 1229.9 343.895 1230.38 344.488C1230.86 345.081 1231.53 345.488 1232.27 345.641C1231.99 345.719 1231.7 345.759 1231.41 345.757C1231.2 345.758 1231 345.739 1230.79 345.7C1231 346.359 1231.41 346.935 1231.96 347.348C1232.51 347.761 1233.18 347.99 1233.86 348.002C1232.7 348.926 1231.26 349.427 1229.78 349.425C1229.52 349.426 1229.26 349.41 1229 349.379C1230.5 350.347 1232.25 350.861 1234.03 350.86Z" fill="#858585"/>
</g>
<g clip-path="url(#clip3_103_6)">
<path d="M1237 387.261C1234.83 387.261 1234.56 387.271 1233.7 387.309C1232.85 387.35 1232.27 387.485 1231.76 387.685C1231.23 387.889 1230.74 388.207 1230.34 388.619C1229.94 389.023 1229.62 389.512 1229.42 390.052C1229.22 390.565 1229.09 391.154 1229.05 392.013C1229.01 392.878 1229 393.153 1229 395.351C1229 397.547 1229.01 397.822 1229.05 398.684C1229.09 399.546 1229.22 400.133 1229.42 400.648C1229.62 401.18 1229.9 401.631 1230.34 402.081C1230.79 402.531 1231.23 402.808 1231.76 403.014C1232.27 403.214 1232.85 403.351 1233.7 403.39C1234.56 403.429 1234.83 403.439 1237 403.439C1239.17 403.439 1239.44 403.429 1240.3 403.39C1241.15 403.35 1241.73 403.214 1242.24 403.014C1242.77 402.811 1243.26 402.492 1243.66 402.081C1244.1 401.631 1244.37 401.18 1244.58 400.648C1244.78 400.133 1244.91 399.546 1244.95 398.684C1244.99 397.822 1245 397.547 1245 395.35C1245 393.153 1244.99 392.878 1244.95 392.014C1244.91 391.154 1244.78 390.565 1244.58 390.052C1244.38 389.512 1244.06 389.023 1243.66 388.619C1243.26 388.207 1242.77 387.888 1242.24 387.685C1241.73 387.485 1241.15 387.349 1240.3 387.309C1239.44 387.271 1239.17 387.261 1237 387.261H1237H1237ZM1236.28 388.719H1237C1239.14 388.719 1239.39 388.726 1240.23 388.765C1241.01 388.801 1241.44 388.933 1241.72 389.043C1242.09 389.19 1242.36 389.366 1242.64 389.649C1242.92 389.932 1243.09 390.201 1243.24 390.579C1243.35 390.863 1243.48 391.292 1243.51 392.081C1243.55 392.933 1243.56 393.189 1243.56 395.348C1243.56 397.507 1243.55 397.763 1243.51 398.616C1243.48 399.404 1243.35 399.832 1243.24 400.117C1243.11 400.468 1242.9 400.786 1242.64 401.046C1242.36 401.33 1242.09 401.505 1241.72 401.651C1241.44 401.762 1241.01 401.894 1240.23 401.93C1239.39 401.969 1239.14 401.978 1237 401.978C1234.87 401.978 1234.61 401.969 1233.77 401.93C1232.99 401.894 1232.56 401.762 1232.28 401.651C1231.94 401.522 1231.62 401.315 1231.36 401.046C1231.1 400.786 1230.89 400.468 1230.76 400.116C1230.65 399.832 1230.52 399.403 1230.49 398.615C1230.45 397.762 1230.44 397.507 1230.44 395.346C1230.44 393.186 1230.45 392.931 1230.49 392.079C1230.52 391.29 1230.65 390.861 1230.76 390.576C1230.91 390.199 1231.08 389.929 1231.36 389.646C1231.64 389.363 1231.91 389.188 1232.28 389.041C1232.56 388.93 1232.99 388.799 1233.77 388.762C1234.51 388.728 1234.79 388.718 1236.28 388.717V388.719ZM1241.27 390.062C1241.14 390.062 1241.02 390.087 1240.9 390.136C1240.79 390.184 1240.68 390.256 1240.59 390.346C1240.5 390.436 1240.43 390.543 1240.38 390.661C1240.34 390.779 1240.31 390.905 1240.31 391.032C1240.31 391.16 1240.34 391.286 1240.38 391.404C1240.43 391.522 1240.5 391.629 1240.59 391.719C1240.68 391.809 1240.79 391.88 1240.9 391.929C1241.02 391.978 1241.14 392.003 1241.27 392.003C1241.53 392.003 1241.77 391.901 1241.95 391.719C1242.13 391.537 1242.23 391.29 1242.23 391.032C1242.23 390.775 1242.13 390.528 1241.95 390.346C1241.77 390.164 1241.53 390.062 1241.27 390.062ZM1237 391.196C1236.46 391.188 1235.91 391.289 1235.41 391.494C1234.9 391.698 1234.44 392.003 1234.05 392.39C1233.67 392.776 1233.36 393.237 1233.15 393.745C1232.94 394.254 1232.83 394.799 1232.83 395.35C1232.83 395.901 1232.94 396.447 1233.15 396.955C1233.36 397.463 1233.67 397.924 1234.05 398.311C1234.44 398.698 1234.9 399.002 1235.41 399.207C1235.91 399.412 1236.46 399.513 1237 399.505C1238.08 399.487 1239.11 399.042 1239.86 398.265C1240.62 397.488 1241.05 396.441 1241.05 395.35C1241.05 394.26 1240.62 393.213 1239.86 392.435C1239.11 391.658 1238.08 391.213 1237 391.196ZM1237 392.653C1237.71 392.653 1238.39 392.937 1238.89 393.443C1239.39 393.949 1239.67 394.635 1239.67 395.35C1239.67 396.065 1239.39 396.751 1238.89 397.257C1238.39 397.762 1237.71 398.046 1237 398.046C1236.29 398.046 1235.62 397.762 1235.12 397.257C1234.61 396.751 1234.33 396.065 1234.33 395.35C1234.33 394.635 1234.61 393.949 1235.12 393.443C1235.62 392.937 1236.29 392.653 1237 392.653Z" fill="#858585"/>
</g>
<defs>
<linearGradient id="paint0_linear_103_6" x1="140" y1="478.262" x2="300" y2="478.262" gradientUnits="userSpaceOnUse">
<stop stop-color="#7AA2CE"/>
<stop offset="1" stop-color="#27415C"/>
</linearGradient>
<clipPath id="clip0_103_6">
<rect width="16" height="16.178" fill="white" transform="translate(1229 233.57)"/>
</clipPath>
<clipPath id="clip1_103_6">
<rect width="16" height="16.178" fill="white" transform="translate(1228 285.137)"/>
</clipPath>
<clipPath id="clip2_103_6">
<rect width="16" height="16.178" fill="white" transform="translate(1228 337.716)"/>
</clipPath>
<clipPath id="clip3_103_6">
<rect width="16" height="16.178" fill="white" transform="translate(1229 387.261)"/>
</clipPath>
</defs>
</svg>
