<svg width="108" height="51" viewBox="0 0 108 51" fill="none" xmlns="http://www.w3.org/2000/svg">
<path d="M63.8906 36.2656C63.9115 36.1615 64.0417 36.0625 64.2812 35.9688C64.5208 35.875 64.8177 35.776 65.1719 35.6719C65.526 35.5677 65.9167 35.4531 66.3438 35.3281C66.7708 35.2031 67.1823 35.0625 67.5781 34.9062C67.974 34.75 68.3333 34.5729 68.6562 34.375C68.9896 34.1771 69.2344 33.9479 69.3906 33.6875C69.3906 33.5312 69.2865 33.4115 69.0781 33.3281C68.8802 33.2448 68.6094 33.1771 68.2656 33.125C67.9323 33.0625 67.5469 33.0156 67.1094 32.9844C66.6823 32.9427 66.2396 32.8906 65.7812 32.8281C65.3333 32.7552 64.8906 32.6719 64.4531 32.5781C64.026 32.474 63.6406 32.3333 63.2969 32.1562C62.9635 31.9688 62.6927 31.7344 62.4844 31.4531C62.2865 31.1719 62.1875 30.8281 62.1875 30.4219C62.1875 30.0156 62.276 29.6146 62.4531 29.2188C62.6302 28.8125 62.8646 28.4219 63.1562 28.0469C63.4583 27.6719 63.7969 27.3229 64.1719 27C64.5573 26.6771 64.9583 26.3958 65.375 26.1562C65.7917 25.9167 66.2031 25.7292 66.6094 25.5938C67.026 25.4583 67.4115 25.3906 67.7656 25.3906C67.8594 25.3906 67.9583 25.3906 68.0625 25.3906C68.1667 25.3802 68.2552 25.3854 68.3281 25.4062C68.4115 25.4167 68.4792 25.4531 68.5312 25.5156C68.5833 25.5781 68.6094 25.6719 68.6094 25.7969C68.6094 26.099 68.5104 26.3177 68.3125 26.4531C68.1146 26.5781 67.875 26.6406 67.5938 26.6406L66.9844 26.2031C66.7448 26.2031 66.4792 26.2708 66.1875 26.4062C65.9062 26.5417 65.6146 26.724 65.3125 26.9531C65.0208 27.1719 64.7344 27.4271 64.4531 27.7188C64.1719 28.0104 63.9219 28.3125 63.7031 28.625C63.4948 28.9375 63.3229 29.25 63.1875 29.5625C63.0625 29.875 63 30.1562 63 30.4062C63 30.7708 63.099 31.0677 63.2969 31.2969C63.5052 31.5156 63.776 31.6927 64.1094 31.8281C64.4531 31.9531 64.8438 32.0469 65.2812 32.1094C65.7188 32.1719 66.1615 32.224 66.6094 32.2656C67.0573 32.3073 67.5 32.349 67.9375 32.3906C68.375 32.4219 68.7604 32.4844 69.0938 32.5781C69.4375 32.6719 69.7083 32.7969 69.9062 32.9531C70.1146 33.1094 70.2188 33.3229 70.2188 33.5938C70.3333 33.7604 70.3073 33.9531 70.1406 34.1719C69.9844 34.3802 69.7344 34.5938 69.3906 34.8125C69.0573 35.0208 68.6562 35.2344 68.1875 35.4531C67.7292 35.6615 67.2552 35.8542 66.7656 36.0312C66.276 36.1979 65.8021 36.3438 65.3438 36.4688C64.8854 36.5833 64.4948 36.6562 64.1719 36.6875C64.0781 36.6875 63.9948 36.6562 63.9219 36.5938C63.8594 36.5312 63.849 36.4219 63.8906 36.2656ZM75.5 36.5938C75.4479 36.3229 75.401 36 75.3594 35.625C75.3281 35.2396 75.2917 34.8542 75.25 34.4688C75.2083 34.0729 75.1562 33.7031 75.0938 33.3594C75.0417 33.0156 74.9583 32.7344 74.8438 32.5156C74.3125 33.599 73.8438 34.4531 73.4375 35.0781C73.0312 35.6927 72.6719 36.1354 72.3594 36.4062C72.0573 36.6667 71.8021 36.7917 71.5938 36.7812C71.3854 36.7708 71.2135 36.6771 71.0781 36.5C70.9427 36.3229 70.8438 36.099 70.7812 35.8281C70.7292 35.5469 70.6927 35.2865 70.6719 35.0469C70.6719 34.8177 70.724 34.4948 70.8281 34.0781C70.9323 33.6615 71.0729 33.2083 71.25 32.7188C71.4271 32.2188 71.6354 31.7135 71.875 31.2031C72.125 30.6927 72.3906 30.2292 72.6719 29.8125C72.9531 29.3958 73.2448 29.0521 73.5469 28.7812C73.849 28.5104 74.151 28.375 74.4531 28.375C74.901 28.3021 75.2292 28.401 75.4375 28.6719C75.6562 28.9323 75.6979 29.375 75.5625 30C75.5625 30.6875 75.5885 31.276 75.6406 31.7656C75.7031 32.2552 75.7656 32.724 75.8281 33.1719C75.901 33.6198 75.9635 34.0885 76.0156 34.5781C76.0781 35.0677 76.1094 35.6562 76.1094 36.3438C76.1094 36.4688 76.0938 36.5781 76.0625 36.6719C76.0417 36.7552 75.9167 36.7969 75.6875 36.7969C75.6562 36.7969 75.6146 36.7708 75.5625 36.7188C75.5208 36.6667 75.5 36.625 75.5 36.5938ZM74.6562 29.6094C74.5417 29.4427 74.3854 29.4271 74.1875 29.5625C73.9896 29.6979 73.7812 29.9219 73.5625 30.2344C73.3438 30.5469 73.1198 30.9219 72.8906 31.3594C72.6615 31.7969 72.4479 32.2396 72.25 32.6875C72.0521 33.1354 71.8802 33.5625 71.7344 33.9688C71.5885 34.3646 71.4896 34.6927 71.4375 34.9531C71.4375 35.3281 71.4948 35.5417 71.6094 35.5938C71.724 35.6354 71.8646 35.5729 72.0312 35.4062C72.1979 35.2396 72.3854 35 72.5938 34.6875C72.8125 34.375 73.0208 34.0417 73.2188 33.6875C73.4271 33.3333 73.6198 32.9896 73.7969 32.6562C73.9844 32.3229 74.1302 32.0521 74.2344 31.8438C74.3281 31.625 74.401 31.4219 74.4531 31.2344C74.5052 31.0469 74.5469 30.8698 74.5781 30.7031C74.6198 30.526 74.6406 30.349 74.6406 30.1719C74.651 29.9948 74.6562 29.8073 74.6562 29.6094ZM77.5781 36.7969C77.4635 35.3906 77.3594 33.9844 77.2656 32.5781C77.1823 31.1615 77.0885 29.6927 76.9844 28.1719C76.9844 27.9219 77.1198 27.7969 77.3906 27.7969H77.5156C77.5469 27.7969 77.5833 27.8385 77.625 27.9219C77.6667 28.0052 77.7083 28.1615 77.75 28.3906C77.8021 28.6094 77.8542 28.9479 77.9062 29.4062C77.9688 29.8542 78.0417 30.4427 78.125 31.1719C78.2083 31.901 78.3021 32.8125 78.4062 33.9062C78.625 33.1979 78.7969 32.5104 78.9219 31.8438C79.0469 31.1771 79.2083 30.5729 79.4062 30.0312C79.6042 29.4792 79.8802 28.9948 80.2344 28.5781C80.599 28.1615 81.1198 27.8542 81.7969 27.6562C82.1719 27.7188 82.474 27.9479 82.7031 28.3438C82.9323 28.7292 83.1146 29.2083 83.25 29.7812C83.3854 30.3542 83.4792 30.9792 83.5312 31.6562C83.5833 32.3229 83.6146 32.9635 83.625 33.5781C83.6354 34.1927 83.6406 34.7448 83.6406 35.2344C83.6406 35.7135 83.651 36.0573 83.6719 36.2656C83.6406 36.349 83.5938 36.4219 83.5312 36.4844C83.4688 36.5469 83.3958 36.5938 83.3125 36.625C83.2396 36.6458 83.1667 36.651 83.0938 36.6406C83.0208 36.6198 82.9531 36.5625 82.8906 36.4688C82.8906 36.3542 82.8802 36.1198 82.8594 35.7656C82.8385 35.4115 82.8125 35 82.7812 34.5312C82.75 34.0521 82.7135 33.5469 82.6719 33.0156C82.6406 32.474 82.6094 31.9688 82.5781 31.5C82.5573 31.0208 82.5365 30.6042 82.5156 30.25C82.4948 29.8958 82.4792 29.6615 82.4688 29.5469C82.25 29.1615 82.0312 28.9427 81.8125 28.8906C81.6042 28.8385 81.3906 28.9062 81.1719 29.0938C80.9635 29.2812 80.7604 29.5677 80.5625 29.9531C80.3646 30.3385 80.1771 30.776 80 31.2656C79.8229 31.7448 79.6562 32.25 79.5 32.7812C79.3438 33.3125 79.2083 33.8281 79.0938 34.3281C78.9792 34.8177 78.8802 35.2656 78.7969 35.6719C78.724 36.0677 78.6771 36.375 78.6562 36.5938C78.625 36.6667 78.5573 36.7396 78.4531 36.8125C78.3594 36.875 78.2552 36.9219 78.1406 36.9531C78.0365 36.9844 77.9271 36.9948 77.8125 36.9844C77.7083 36.9635 77.6302 36.901 77.5781 36.7969ZM85.0781 30.3281C84.974 30.3802 84.875 30.4375 84.7812 30.5C84.6979 30.5521 84.6146 30.6042 84.5312 30.6562C84.4479 30.6979 84.3646 30.7292 84.2812 30.75C84.1979 30.7708 84.1094 30.7708 84.0156 30.75C83.9531 30.75 83.901 30.7135 83.8594 30.6406C83.8177 30.5573 83.7865 30.4688 83.7656 30.375C83.7344 30.2708 83.7135 30.1719 83.7031 30.0781C83.6927 29.974 83.6927 29.8958 83.7031 29.8438L85.2031 28.9844L85.2969 24.9844C85.3177 24.849 85.401 24.7969 85.5469 24.8281C85.6927 24.849 85.8438 24.8802 86 24.9219C86.0208 24.9219 86.0521 24.9323 86.0938 24.9531C86.1458 24.9635 86.1823 24.974 86.2031 24.9844C86.1823 25.2656 86.1562 25.5729 86.125 25.9062C86.1042 26.2292 86.0833 26.5573 86.0625 26.8906C86.0417 27.2135 86.026 27.5312 86.0156 27.8438C86.0156 28.1562 86.0312 28.4375 86.0625 28.6875L88.4062 28.0312C88.4479 28.0208 88.4792 28.0521 88.5 28.125C88.5312 28.1875 88.5573 28.2656 88.5781 28.3594C88.6094 28.4531 88.6302 28.5469 88.6406 28.6406C88.651 28.7344 88.6562 28.7812 88.6562 28.7812L86 29.9062C86 30 86.0052 30.224 86.0156 30.5781C86.0365 30.9323 86.0573 31.3542 86.0781 31.8438C86.099 32.3229 86.1198 32.8438 86.1406 33.4062C86.1615 33.9583 86.1823 34.474 86.2031 34.9531C86.224 35.4323 86.2396 35.8542 86.25 36.2188C86.2604 36.5729 86.2656 36.7969 86.2656 36.8906C86.2448 37.2031 86.151 37.3594 85.9844 37.3594C85.8281 37.3594 85.6562 37.2812 85.4688 37.125L85.0781 30.3281ZM89.2031 36.6875C89.2031 36.0104 89.1875 35.2969 89.1562 34.5469C89.1354 33.7969 89.1094 33.0417 89.0781 32.2812C89.0573 31.5104 89.0521 30.7552 89.0625 30.0156C89.0729 29.276 89.1198 28.5833 89.2031 27.9375C89.224 27.9271 89.2708 27.9219 89.3438 27.9219C89.4271 27.9115 89.4844 27.9062 89.5156 27.9062C89.6615 27.9062 89.776 27.9323 89.8594 27.9844C89.9531 28.026 90 28.125 90 28.2812C90 28.8958 89.9948 29.5677 89.9844 30.2969C89.9844 31.0156 89.9792 31.75 89.9688 32.5C89.9688 33.2396 89.9688 33.974 89.9688 34.7031C89.9688 35.4323 89.9792 36.0938 90 36.6875C90.0104 36.8646 89.974 36.9792 89.8906 37.0312C89.8177 37.0938 89.724 37.125 89.6094 37.125C89.4844 37.125 89.3802 37.0938 89.2969 37.0312C89.2135 36.9792 89.1823 36.8646 89.2031 36.6875ZM88.8594 25.5C88.8594 25.375 88.901 25.2917 88.9844 25.25C89.0677 25.2083 89.1615 25.1875 89.2656 25.1875C89.474 25.1875 89.6042 25.2552 89.6562 25.3906C89.7083 25.526 89.7344 25.6823 89.7344 25.8594C89.6719 25.974 89.5938 26.0573 89.5 26.1094C89.4062 26.151 89.3073 26.1615 89.2031 26.1406C89.1094 26.1094 89.026 26.0417 88.9531 25.9375C88.8906 25.8333 88.8594 25.6875 88.8594 25.5ZM95.5156 36.5938C95.4635 36.3229 95.4167 36 95.375 35.625C95.3438 35.2396 95.3073 34.8542 95.2656 34.4688C95.224 34.0729 95.1719 33.7031 95.1094 33.3594C95.0573 33.0156 94.974 32.7344 94.8594 32.5156C94.3281 33.599 93.8594 34.4531 93.4531 35.0781C93.0469 35.6927 92.6875 36.1354 92.375 36.4062C92.0729 36.6667 91.8177 36.7917 91.6094 36.7812C91.401 36.7708 91.2292 36.6771 91.0938 36.5C90.9583 36.3229 90.8594 36.099 90.7969 35.8281C90.7448 35.5469 90.7083 35.2865 90.6875 35.0469C90.6875 34.8177 90.7396 34.4948 90.8438 34.0781C90.9479 33.6615 91.0885 33.2083 91.2656 32.7188C91.4427 32.2188 91.651 31.7135 91.8906 31.2031C92.1406 30.6927 92.4062 30.2292 92.6875 29.8125C92.9688 29.3958 93.2604 29.0521 93.5625 28.7812C93.8646 28.5104 94.1667 28.375 94.4688 28.375C94.9167 28.3021 95.2448 28.401 95.4531 28.6719C95.6719 28.9323 95.7135 29.375 95.5781 30C95.5781 30.6875 95.6042 31.276 95.6562 31.7656C95.7188 32.2552 95.7812 32.724 95.8438 33.1719C95.9167 33.6198 95.9792 34.0885 96.0312 34.5781C96.0938 35.0677 96.125 35.6562 96.125 36.3438C96.125 36.4688 96.1094 36.5781 96.0781 36.6719C96.0573 36.7552 95.9323 36.7969 95.7031 36.7969C95.6719 36.7969 95.6302 36.7708 95.5781 36.7188C95.5365 36.6667 95.5156 36.625 95.5156 36.5938ZM94.6719 29.6094C94.5573 29.4427 94.401 29.4271 94.2031 29.5625C94.0052 29.6979 93.7969 29.9219 93.5781 30.2344C93.3594 30.5469 93.1354 30.9219 92.9062 31.3594C92.6771 31.7969 92.4635 32.2396 92.2656 32.6875C92.0677 33.1354 91.8958 33.5625 91.75 33.9688C91.6042 34.3646 91.5052 34.6927 91.4531 34.9531C91.4531 35.3281 91.5104 35.5417 91.625 35.5938C91.7396 35.6354 91.8802 35.5729 92.0469 35.4062C92.2135 35.2396 92.401 35 92.6094 34.6875C92.8281 34.375 93.0365 34.0417 93.2344 33.6875C93.4427 33.3333 93.6354 32.9896 93.8125 32.6562C94 32.3229 94.1458 32.0521 94.25 31.8438C94.3438 31.625 94.4167 31.4219 94.4688 31.2344C94.5208 31.0469 94.5625 30.8698 94.5938 30.7031C94.6354 30.526 94.6562 30.349 94.6562 30.1719C94.6667 29.9948 94.6719 29.8073 94.6719 29.6094ZM98.0156 43.1094C98.9323 43.0573 99.651 42.8177 100.172 42.3906C100.703 41.9635 101.099 41.4115 101.359 40.7344C101.62 40.0573 101.776 39.2812 101.828 38.4062C101.88 37.5417 101.885 36.6458 101.844 35.7188C101.802 34.7917 101.74 33.8646 101.656 32.9375C101.583 32 101.552 31.1302 101.562 30.3281C101.115 31.6406 100.693 32.7031 100.297 33.5156C99.901 34.3177 99.5312 34.9271 99.1875 35.3438C98.8542 35.75 98.5469 36 98.2656 36.0938C97.9948 36.1771 97.7552 36.1615 97.5469 36.0469C97.3385 35.9219 97.1667 35.7292 97.0312 35.4688C96.9062 35.1979 96.8177 34.9219 96.7656 34.6406C96.7865 34.1615 96.8802 33.6354 97.0469 33.0625C97.224 32.4792 97.4479 31.9115 97.7188 31.3594C98 30.7969 98.3229 30.276 98.6875 29.7969C99.0521 29.3073 99.4375 28.9271 99.8438 28.6562C100.25 28.375 100.672 28.2292 101.109 28.2188C101.547 28.1979 101.969 28.3646 102.375 28.7188C102.385 28.7292 102.401 28.8698 102.422 29.1406C102.453 29.401 102.484 29.75 102.516 30.1875C102.557 30.6146 102.599 31.099 102.641 31.6406C102.693 32.1719 102.74 32.7135 102.781 33.2656C102.823 33.8073 102.859 34.3281 102.891 34.8281C102.922 35.3281 102.953 35.7604 102.984 36.125C103.026 36.7188 103 37.349 102.906 38.0156C102.823 38.6823 102.688 39.3281 102.5 39.9531C102.312 40.5885 102.073 41.1823 101.781 41.7344C101.5 42.2865 101.172 42.7396 100.797 43.0938C100.432 43.4479 100.021 43.6719 99.5625 43.7656C99.1146 43.8698 98.6354 43.7917 98.125 43.5312C98.0938 43.5312 98.0469 43.526 97.9844 43.5156C97.9219 43.5156 97.8698 43.5 97.8281 43.4688C97.7969 43.4375 97.7917 43.3958 97.8125 43.3438C97.8333 43.2917 97.901 43.2135 98.0156 43.1094ZM97.5781 34.5312C97.6823 34.8542 97.8177 35.0208 97.9844 35.0312C98.1615 35.0312 98.349 34.9219 98.5469 34.7031C98.7448 34.474 98.9583 34.1562 99.1875 33.75C99.4271 33.3438 99.6615 32.901 99.8906 32.4219C100.12 31.9427 100.344 31.4531 100.562 30.9531C100.792 30.4427 101.005 29.9688 101.203 29.5312C101.203 29.4167 101.177 29.3125 101.125 29.2188C101.073 29.1146 100.958 29.0833 100.781 29.125C100.49 29.1875 100.203 29.3281 99.9219 29.5469C99.651 29.7656 99.3958 30.0365 99.1562 30.3594C98.9271 30.6719 98.7135 31.0208 98.5156 31.4062C98.3281 31.7812 98.1615 32.1615 98.0156 32.5469C97.8802 32.9219 97.7708 33.2812 97.6875 33.625C97.6146 33.9688 97.5781 34.2708 97.5781 34.5312ZM103.922 34.8594C103.849 34.3802 103.812 33.9167 103.812 33.4688C103.812 33.0104 103.839 32.5469 103.891 32.0781C103.953 31.6094 104.036 31.125 104.141 30.625C104.255 30.1146 104.385 29.5677 104.531 28.9844C104.531 28.8698 104.562 28.7656 104.625 28.6719C104.688 28.5677 104.771 28.4844 104.875 28.4219C104.979 28.349 105.089 28.2917 105.203 28.25C105.318 28.2083 105.427 28.1875 105.531 28.1875C105.76 28.1875 105.969 28.2604 106.156 28.4062C106.344 28.5521 106.51 28.7292 106.656 28.9375C106.812 29.1458 106.943 29.3698 107.047 29.6094C107.161 29.8385 107.255 30.0365 107.328 30.2031C107.411 30.5677 107.469 30.9844 107.5 31.4531C107.542 31.9115 107.547 32.3802 107.516 32.8594C107.484 33.3385 107.411 33.8125 107.297 34.2812C107.182 34.7396 107.021 35.1615 106.812 35.5469C106.604 35.9323 106.333 36.2552 106 36.5156C105.677 36.776 105.292 36.9375 104.844 37C104.604 37 104.422 36.9219 104.297 36.7656C104.172 36.599 104.078 36.401 104.016 36.1719C103.964 35.9323 103.932 35.6927 103.922 35.4531C103.922 35.2135 103.922 35.0156 103.922 34.8594ZM104.719 34.8125C104.719 34.9167 104.719 35.0156 104.719 35.1094C104.729 35.2031 104.74 35.2969 104.75 35.3906C104.771 35.474 104.792 35.5677 104.812 35.6719C104.844 35.7656 104.88 35.875 104.922 36H105.016C105.266 36 105.479 35.9167 105.656 35.75C105.833 35.5833 105.984 35.3698 106.109 35.1094C106.234 34.8385 106.339 34.5417 106.422 34.2188C106.505 33.8854 106.568 33.5625 106.609 33.25C106.661 32.9271 106.693 32.6302 106.703 32.3594C106.724 32.0781 106.734 31.8542 106.734 31.6875V31.375C106.734 31.2396 106.729 31.0885 106.719 30.9219C106.708 30.7448 106.688 30.5677 106.656 30.3906C106.635 30.2031 106.599 30.0365 106.547 29.8906C106.495 29.7344 106.427 29.6094 106.344 29.5156C106.26 29.4219 106.151 29.375 106.016 29.375C105.786 29.3021 105.589 29.3177 105.422 29.4219C105.266 29.526 105.135 29.7031 105.031 29.9531C104.938 30.1927 104.865 30.4896 104.812 30.8438C104.76 31.1979 104.729 31.5885 104.719 32.0156C104.708 32.4427 104.703 32.8958 104.703 33.375C104.714 33.8542 104.719 34.3333 104.719 34.8125Z" fill="#91C4FB"/>
<path d="M1.53125 35.7812C1.48958 33.1354 1.4375 30.875 1.375 29C1.33333 27.1042 1.29167 25.5104 1.25 24.2188C1.20833 22.9271 1.15625 21.9062 1.09375 21.1562C1.05208 20.3854 1.02083 19.7708 1 19.3125C0.979167 18.8542 0.958333 18.5312 0.9375 18.3438C0.916667 18.1354 0.90625 17.9375 0.90625 17.75C0.90625 17.3958 1.01042 17.1771 1.21875 17.0938C1.42708 16.9896 1.6875 16.9375 2 16.9375C2.35417 16.9375 2.625 17.0104 2.8125 17.1562C3.02083 17.2812 3.125 17.625 3.125 18.1875L3.71875 35C3.73958 35 3.84375 34.9792 4.03125 34.9375C4.21875 34.8958 4.4375 34.8333 4.6875 34.75C4.9375 34.6667 5.19792 34.5833 5.46875 34.5C5.73958 34.3958 5.95833 34.3021 6.125 34.2188C6.375 34.1146 6.75 33.9479 7.25 33.7188C7.75 33.4896 8.3125 33.2292 8.9375 32.9375C9.5625 32.6458 10.2188 32.3438 10.9062 32.0312C11.6146 31.6979 12.2812 31.3958 12.9062 31.125C13.5521 30.8333 14.1146 30.5729 14.5938 30.3438C15.0938 30.0938 15.4688 29.9167 15.7188 29.8125H16.0938C16.2188 29.8125 16.3438 29.8229 16.4688 29.8438C16.5938 29.8646 16.6979 29.9167 16.7812 30C16.8646 30.0833 16.9167 30.2083 16.9375 30.375C16.9375 30.5833 16.8958 30.7604 16.8125 30.9062C16.75 31.0521 16.6562 31.2188 16.5312 31.4062C15.3021 31.6354 14.0938 32.0521 12.9062 32.6562C11.7396 33.2604 10.5729 33.8854 9.40625 34.5312C8.26042 35.1771 7.09375 35.75 5.90625 36.25C4.73958 36.75 3.54167 37 2.3125 37C1.79167 37 1.53125 36.5938 1.53125 35.7812ZM25.9375 33.375C25.8542 33.625 25.6458 33.9688 25.3125 34.4062C25 34.8229 24.625 35.25 24.1875 35.6875C23.75 36.1042 23.2917 36.4792 22.8125 36.8125C22.3542 37.125 21.9479 37.2812 21.5938 37.2812C20.9271 37.2812 20.375 36.9688 19.9375 36.3438C19.5208 35.7188 19.1979 34.9167 18.9688 33.9375C18.7396 32.9583 18.5833 31.875 18.5 30.6875C18.4167 29.4792 18.3646 28.3021 18.3438 27.1562C18.3229 26.0104 18.3125 24.9688 18.3125 24.0312C18.3125 23.0938 18.2812 22.3854 18.2188 21.9062C18.3021 21.6979 18.4062 21.5729 18.5312 21.5312C18.6771 21.4896 18.8438 21.4688 19.0312 21.4688C19.1979 21.4688 19.3438 21.4896 19.4688 21.5312C19.6146 21.5729 19.7396 21.6979 19.8438 21.9062C19.8438 22.1354 19.8438 22.5208 19.8438 23.0625C19.8646 23.6042 19.8958 24.2188 19.9375 24.9062C19.9792 25.5729 20.0208 26.2812 20.0625 27.0312C20.1042 27.7604 20.1354 28.4583 20.1562 29.125C20.1979 29.7917 20.2292 30.3958 20.25 30.9375C20.2917 31.4583 20.3229 31.8438 20.3438 32.0938C20.3646 32.2396 20.3854 32.4792 20.4062 32.8125C20.4479 33.1458 20.5 33.5 20.5625 33.875C20.6458 34.2292 20.7396 34.5521 20.8438 34.8438C20.9688 35.1354 21.125 35.2917 21.3125 35.3125C21.625 35.3125 21.9375 35.1771 22.25 34.9062C22.5833 34.6354 22.9062 34.2917 23.2188 33.875C23.5312 33.4583 23.8229 33 24.0938 32.5C24.3646 32 24.6042 31.5208 24.8125 31.0625C25.0417 30.5833 25.2083 30.1562 25.3125 29.7812C25.4375 29.4062 25.5104 29.1354 25.5312 28.9688C25.5729 28.6146 25.6146 28.1146 25.6562 27.4688C25.6979 26.8021 25.7292 26.0938 25.75 25.3438C25.7708 24.5938 25.7812 23.8854 25.7812 23.2188C25.8021 22.5521 25.8125 22.0417 25.8125 21.6875L27.5312 21.7812C27.5521 23.4688 27.5417 25 27.5 26.375C27.4583 27.7292 27.4479 29.0104 27.4688 30.2188C27.4896 31.4062 27.5833 32.5625 27.75 33.6875C27.9167 34.8125 28.2188 35.9792 28.6562 37.1875C28.5938 37.25 28.4688 37.3333 28.2812 37.4375C28.0938 37.5625 27.9583 37.625 27.875 37.625C27.3542 37.625 27 37.4479 26.8125 37.0938C26.6458 36.7604 26.5312 36.3646 26.4688 35.9062C26.4271 35.4271 26.3854 34.9583 26.3438 34.5C26.3229 34.0208 26.1875 33.6458 25.9375 33.375ZM39.2812 36.1875C39.1771 35.6458 39.0833 35 39 34.25C38.9375 33.4792 38.8646 32.7083 38.7812 31.9375C38.6979 31.1458 38.5938 30.4062 38.4688 29.7188C38.3646 29.0312 38.1979 28.4688 37.9688 28.0312C36.9062 30.1979 35.9688 31.9062 35.1562 33.1562C34.3438 34.3854 33.625 35.2708 33 35.8125C32.3958 36.3333 31.8854 36.5833 31.4688 36.5625C31.0521 36.5417 30.7083 36.3542 30.4375 36C30.1667 35.6458 29.9688 35.1979 29.8438 34.6562C29.7396 34.0938 29.6667 33.5729 29.625 33.0938C29.625 32.6354 29.7292 31.9896 29.9375 31.1562C30.1458 30.3229 30.4271 29.4167 30.7812 28.4375C31.1354 27.4375 31.5521 26.4271 32.0312 25.4062C32.5312 24.3854 33.0625 23.4583 33.625 22.625C34.1875 21.7917 34.7708 21.1042 35.375 20.5625C35.9792 20.0208 36.5833 19.75 37.1875 19.75C38.0833 19.6042 38.7396 19.8021 39.1562 20.3438C39.5938 20.8646 39.6771 21.75 39.4062 23C39.4062 24.375 39.4583 25.5521 39.5625 26.5312C39.6875 27.5104 39.8125 28.4479 39.9375 29.3438C40.0833 30.2396 40.2083 31.1771 40.3125 32.1562C40.4375 33.1354 40.5 34.3125 40.5 35.6875C40.5 35.9375 40.4688 36.1562 40.4062 36.3438C40.3646 36.5104 40.1146 36.5938 39.6562 36.5938C39.5938 36.5938 39.5104 36.5417 39.4062 36.4375C39.3229 36.3333 39.2812 36.25 39.2812 36.1875ZM37.5938 22.2188C37.3646 21.8854 37.0521 21.8542 36.6562 22.125C36.2604 22.3958 35.8438 22.8438 35.4062 23.4688C34.9688 24.0938 34.5208 24.8438 34.0625 25.7188C33.6042 26.5938 33.1771 27.4792 32.7812 28.375C32.3854 29.2708 32.0417 30.125 31.75 30.9375C31.4583 31.7292 31.2604 32.3854 31.1562 32.9062C31.1562 33.6562 31.2708 34.0833 31.5 34.1875C31.7292 34.2708 32.0104 34.1458 32.3438 33.8125C32.6771 33.4792 33.0521 33 33.4688 32.375C33.9062 31.75 34.3229 31.0833 34.7188 30.375C35.1354 29.6667 35.5208 28.9792 35.875 28.3125C36.25 27.6458 36.5417 27.1042 36.75 26.6875C36.9375 26.25 37.0833 25.8438 37.1875 25.4688C37.2917 25.0938 37.375 24.7396 37.4375 24.4062C37.5208 24.0521 37.5625 23.6979 37.5625 23.3438C37.5833 22.9896 37.5938 22.6146 37.5938 22.2188ZM43.4375 36.5938C43.2083 33.7812 43 30.9688 42.8125 28.1562C42.6458 25.3229 42.4583 22.3854 42.25 19.3438C42.25 18.8438 42.5208 18.5938 43.0625 18.5938H43.3125C43.375 18.5938 43.4479 18.6771 43.5312 18.8438C43.6146 19.0104 43.6979 19.3229 43.7812 19.7812C43.8854 20.2188 43.9896 20.8958 44.0938 21.8125C44.2188 22.7083 44.3646 23.8854 44.5312 25.3438C44.6979 26.8021 44.8854 28.625 45.0938 30.8125C45.5312 29.3958 45.875 28.0208 46.125 26.6875C46.375 25.3542 46.6979 24.1458 47.0938 23.0625C47.4896 21.9583 48.0417 20.9896 48.75 20.1562C49.4792 19.3229 50.5208 18.7083 51.875 18.3125C52.625 18.4375 53.2292 18.8958 53.6875 19.6875C54.1458 20.4583 54.5104 21.4167 54.7812 22.5625C55.0521 23.7083 55.2396 24.9583 55.3438 26.3125C55.4479 27.6458 55.5104 28.9271 55.5312 30.1562C55.5521 31.3854 55.5625 32.4896 55.5625 33.4688C55.5625 34.4271 55.5833 35.1146 55.625 35.5312C55.5625 35.6979 55.4688 35.8438 55.3438 35.9688C55.2188 36.0938 55.0729 36.1875 54.9062 36.25C54.7604 36.2917 54.6146 36.3021 54.4688 36.2812C54.3229 36.2396 54.1875 36.125 54.0625 35.9375C54.0625 35.7083 54.0417 35.2396 54 34.5312C53.9583 33.8229 53.9062 33 53.8438 32.0625C53.7812 31.1042 53.7083 30.0938 53.625 29.0312C53.5625 27.9479 53.5 26.9375 53.4375 26C53.3958 25.0417 53.3542 24.2083 53.3125 23.5C53.2708 22.7917 53.2396 22.3229 53.2188 22.0938C52.7812 21.3229 52.3438 20.8854 51.9062 20.7812C51.4896 20.6771 51.0625 20.8125 50.625 21.1875C50.2083 21.5625 49.8021 22.1354 49.4062 22.9062C49.0104 23.6771 48.6354 24.5521 48.2812 25.5312C47.9271 26.4896 47.5938 27.5 47.2812 28.5625C46.9688 29.625 46.6979 30.6562 46.4688 31.6562C46.2396 32.6354 46.0417 33.5312 45.875 34.3438C45.7292 35.1354 45.6354 35.75 45.5938 36.1875C45.5312 36.3333 45.3958 36.4792 45.1875 36.625C45 36.75 44.7917 36.8438 44.5625 36.9062C44.3542 36.9688 44.1354 36.9896 43.9062 36.9688C43.6979 36.9271 43.5417 36.8021 43.4375 36.5938Z" fill="white"/>
<rect width="65" height="1.66022" transform="matrix(-0.999866 0.0163974 0.0163974 0.999866 84.9913 29)" fill="url(#paint0_linear_110_8)" stroke="black" stroke-width="0.5"/>
<defs>
<linearGradient id="paint0_linear_110_8" x1="0" y1="1.66022" x2="65" y2="1.66022" gradientUnits="userSpaceOnUse">
<stop stop-color="#D9D9D9"/>
<stop offset="1" stop-color="#092440"/>
</linearGradient>
</defs>
</svg>
